<svg version="1.2" xmlns="http://www.w3.org/2000/svg" viewBox="0 0 750 469" width="750" height="469">
	<title>5060709_2663518-svg</title>
	<defs>
		<linearGradient id="g1" x1="207.9" y1="192.7" x2="186.8" y2="181.2" gradientUnits="userSpaceOnUse">
			<stop offset="0" stop-color="#e1e8f6"/>
			<stop offset="1" stop-color="#ffffff"/>
		</linearGradient>
	</defs>
	<style>
		.s0 { fill: #ffffff } 
		.s1 { fill: #e1e8f6 } 
		.s2 { fill: #b4c5e6 } 
		.s3 { fill: #9fb2d9 } 
		.s4 { fill: #00000f } 
		.s5 { fill: url(#g1) } 
		.s6 { fill: #101537 } 
		.s7 { fill: #b32720 } 
		.s8 { fill: #d64c47 } 
		.s9 { fill: #3b405f } 
		.s10 { fill: #674834 } 
		.s11 { fill: #b56b41 } 
		.s12 { fill: #d58750 } 
		.s13 { fill: #ea5756 } 
		.s14 { fill: #db4141 } 
		.s15 { fill: #fffaf9 } 
		.s16 { fill: #131936 } 
		.s17 { fill: #050a25 } 
		.s18 { fill: #f5ac83 } 
		.s19 { fill: #f2d8cd } 
		.s20 { fill: #dcdcee } 
		.s21 { fill: #b5b6d3 } 
		.s22 { fill: #d0d0e6 } 
		.s23 { fill: #9295bc } 
		.s24 { fill: #c0cdea } 
		.s25 { fill: #f9b100 } 
		.s26 { fill: #294d3c } 
		.s27 { fill: #4a9075 } 
		.s28 { fill: #1b7154 } 
		.s29 { fill: #a6c86b } 
		.s30 { fill: #5f9850 } 
		.s31 { fill: #151d3d } 
		.s32 { fill: #33385c } 
		.s33 { fill: #484e78 } 
		.s34 { fill: #cdcde2 } 
		.s35 { fill: #ededf6 } 
		.s36 { fill: #1c262d } 
	</style>
	<g id="BACKGROUND">
		<path id="Layer" class="s0" d="m125 0h500v500h-500z"/>
		<path id="Layer" class="s0" d="m0 0h750v500h-750z"/>
	</g>
	<g id="OBJECTS">
		<g id="Layer">
			<path id="Layer" fill-rule="evenodd" class="s1" d="m547.2 337.2h56.7c30.6 0 55.5 24.9 55.5 55.5 0 30.5-24.9 55.5-55.5 55.5h-479.7c-49.5 0-89.9-40.5-89.9-89.9 0-49.5 40.4-89.9 89.9-89.9 20.9 0 38-17.1 38-38 0-20.9-17.1-38-38-38h-45.8c-21.7 0-39.5-17.8-39.5-39.6 0-21.7 17.8-39.5 39.5-39.5h57.9c8.4 0 15.3-6.9 15.3-15.4 0-8.4-6.9-15.4-15.3-15.4h-10.2c-5.9 0-10.7-4.7-10.7-10.6 0-5.8 4.8-10.6 10.7-10.6 0 0 52.8 0 66.9 0 14.1 0 15.6 16.6 51.2 16.6 55.1 0 27.6 0 82.6 0 7.6 0 13.9 6.3 13.9 13.9 0 7.6-6.3 13.9-13.9 13.9h-13.3c-11.1 0-20.1 9-20.1 20 0 11.1 9 20.1 20.1 20.1h40c54.1 0 61.8 14.1 71.2 42.3 9.5 28.1 58.7 30.3 58.7 30.3h67.2c16.7 0 30.3 13.6 30.3 30.3 0 16.6-13.6 30.2-30.3 30.2h-3.4c-16 0-29.1 13.1-29.1 29.1 0 16.1 13.1 29.2 29.1 29.2zm-461.6-265.3c0-5.8 4.8-10.6 10.7-10.6 5.8 0 10.6 4.8 10.6 10.6 0 5.9-4.8 10.6-10.6 10.6-5.9 0-10.7-4.7-10.7-10.6z"/>
			<g id="Layer">
				<path id="Layer" fill-rule="evenodd" class="s2" d="m495.9 448.8c5.7-8.4 17.8-22.2 40.8-36 36.4-21.9 64.1-50.8 51.9-67.9-11.9-16.8-65.3 15.6-109.6 96.7 6.5 3.5 12.1 5.8 16.9 7.2z"/>
				<path id="Layer" fill-rule="evenodd" class="s0" d="m488.8 441.4c1-0.1 3.6-0.1 7.1 0.9 0.3 0.1 0.5 0 0.6-0.3 0.1-0.2 0-0.5-0.3-0.5-3.1-0.9-5.6-1.1-6.9-1.1q1.2-2 2.4-3.9c1.6-0.1 6.8-0.2 8.7-0.1 0.3 0.1 0.5-0.1 0.5-0.4 0-0.2-0.2-0.5-0.4-0.5-1.8-0.1-6.2 0-8.3 0q2.3-3.6 4.5-7c1.5 0 6.4 0.1 11.7 0.9 0.2 0 0.5-0.2 0.5-0.4 0-0.3-0.1-0.5-0.4-0.6-4.8-0.6-9.3-0.8-11.2-0.8q2.2-3.5 4.4-6.7c2.2 0 9.1 0.2 16.8 1.2 0.2 0.1 0.5-0.1 0.5-0.4 0-0.2-0.1-0.5-0.4-0.5-7.1-0.9-13.6-1.2-16.2-1.3q2.9-4.2 5.8-8.1c2.3-0.1 11.5-0.4 18.5 1.9 0.2 0 0.5-0.1 0.5-0.3 0.1-0.3 0-0.5-0.3-0.6-6.4-2.1-14.8-2.1-18-2q3.6-4.8 7.1-9.1c3.1 0.2 15.3 1.1 21.1 5.2 0.2 0.1 0.5 0.1 0.6-0.1 0.2-0.2 0.1-0.5-0.1-0.7-5.6-3.9-16.9-5-20.8-5.3q3.7-4.5 7.4-8.5c2.2 0.5 11.5 2.7 20.2 7.1 0.3 0.1 0.6 0 0.7-0.2 0.1-0.2 0-0.5-0.2-0.6-8.3-4.2-17.1-6.4-20-7.1q2.2-2.4 4.3-4.6c2.1 0.5 11.2 2.5 23.2 8.3 0.2 0.1 0.5 0 0.6-0.2 0.1-0.2 0-0.5-0.2-0.6-11.2-5.4-19.9-7.6-22.8-8.3q5-5.1 9.8-9.4c2.7 0.9 16.3 5.5 23.5 10.1 0.2 0.1 0.5 0.1 0.6-0.2 0.1-0.2 0.1-0.5-0.1-0.6-6.9-4.4-19.6-8.8-23.2-10q2.8-2.4 5.4-4.6c2.3 0.8 12.9 4.5 22.5 10.1 0.2 0.1 0.5 0 0.7-0.2 0.1-0.2 0-0.5-0.2-0.6-9.1-5.3-19-8.9-22.1-10 4.1-3.3 8-6.1 11.6-8.5 2.3 0.5 12.6 3.1 20.3 7.6 0.2 0.1 0.5 0 0.7-0.2 0.1-0.2 0-0.5-0.2-0.6-7.1-4.1-16.3-6.7-19.7-7.5q2.2-1.5 4.3-2.7c1.8 0.2 8.7 1.1 17.5 4.5 0.3 0.1 0.5 0 0.6-0.3 0.1-0.2 0-0.5-0.3-0.6-7.5-2.9-13.6-4-16.5-4.4 11.1-6.4 18-8 18-8 0.4-0.1 0.6-0.5 0.6-0.8-0.1-0.4-0.5-0.6-0.9-0.5 0 0-3.1 0.7-8.3 3 1.4-1.8 3.5-4.3 4-4.7 0.2-0.1 0.3-0.4 0.2-0.6-0.2-0.2-0.5-0.3-0.7-0.1-0.8 0.5-4.2 4.8-5.4 6.2-2.1 1-4.5 2.3-7.2 3.8l4.6-9.1c0.1-0.2 0-0.5-0.2-0.6-0.3-0.1-0.5 0-0.7 0.2l-5.2 10.3q-2.7 1.7-5.8 3.7l4.9-10.8c0.1-0.2 0-0.5-0.2-0.6-0.2-0.1-0.5 0-0.6 0.2l-5.6 12.1q-4.6 3.1-9.8 7.2l4.3-11.1c0.1-0.3 0-0.5-0.3-0.6-0.2-0.1-0.5 0-0.6 0.2l-4.8 12.7q-2.4 1.9-4.8 4l3.6-10c0.1-0.3 0-0.5-0.3-0.6-0.2-0.1-0.5 0-0.6 0.3l-4.2 11.6q-4.5 4-9.3 8.9l2.7-9.8c0.1-0.3-0.1-0.5-0.3-0.6-0.3-0.1-0.5 0.1-0.6 0.3l-3.2 11.5q-1.9 1.9-3.8 4l1.5-7.5c0-0.2-0.1-0.5-0.4-0.5-0.2-0.1-0.5 0.1-0.5 0.3l-1.8 9q-3.7 4-7.4 8.5l1.5-8.4c0-0.3-0.2-0.5-0.4-0.5-0.3-0.1-0.5 0.1-0.5 0.3l-1.7 10q-3.3 3.9-6.6 8.3l1-7.4c0-0.3-0.2-0.5-0.4-0.5-0.3-0.1-0.5 0.1-0.6 0.4l-1.1 9q-2.9 3.8-5.8 8l0.1-6.7c0-0.2-0.2-0.5-0.5-0.5-0.2 0-0.4 0.2-0.4 0.5l-0.1 8.1q-2.1 3-4.2 6.2l-0.7-5.7c0-0.2-0.3-0.4-0.5-0.4-0.3 0-0.5 0.3-0.4 0.5l0.8 6.8q-1.9 3-3.8 6.2l-0.7-3.7c-0.1-0.3-0.3-0.4-0.6-0.4-0.2 0.1-0.4 0.3-0.3 0.5l0.8 4.8q-1.4 2.3-2.9 4.8l-1.5-3.1c-0.1-0.2-0.4-0.3-0.6-0.2-0.2 0.2-0.3 0.4-0.2 0.7l1.8 3.5q-1.2 2-2.4 4.1 0.7 0.3 1.3 0.6 1.1-2 2.3-3.9z"/>
			</g>
			<g id="Layer">
				<path id="Layer" fill-rule="evenodd" class="s3" d="m489.3 453.5c6.1-3.9 17-9.1 33.4-11.4 27.8-4 52.7-15.4 50.8-30.7-1.8-14.6-41.3-9-90.4 30.8l6.1 11.3z"/>
				<path id="Layer" fill-rule="evenodd" class="s2" d="m566 413.7c0.5 0 0.9-0.4 0.9-0.9 0-0.6-0.4-1-0.9-1-0.1 0-3.2 0-8.5 0.7l4.6-3c0.3-0.2 0.4-0.6 0.2-0.9-0.2-0.3-0.6-0.4-0.9-0.2l-6.8 4.6c-2.4 0.4-5.3 0.9-8.4 1.6l4.8-4.5c0.3-0.3 0.3-0.7 0-0.9-0.2-0.3-0.6-0.3-0.9 0l-6.4 6.1c-3.2 0.8-6.7 1.9-10.3 3.2l3.9-4.2c0.3-0.2 0.3-0.6 0-0.9-0.2-0.2-0.6-0.2-0.9 0.1l-5.8 6c-3.9 1.4-7.9 3.1-12.1 5.2l3.4-4.4c0.2-0.2 0.1-0.6-0.2-0.8-0.2-0.3-0.6-0.2-0.9 0.1l-5 6.4q-5.9 3-12.1 7l1.4-3c0.2-0.3 0-0.6-0.3-0.8-0.3-0.1-0.7 0-0.8 0.3l-2.3 4.8q-4.7 3.1-9.4 6.8l1.2-3c0.2-0.3 0-0.6-0.3-0.8-0.3-0.1-0.7 0-0.8 0.4l-2.2 5.1q-2.3 1.9-4.6 3.9l0.9 1.7q2.3-2 4.6-3.9c1.6 0.1 5.4 0.4 7 1.3 0.3 0.1 0.6 0 0.8-0.3 0.2-0.3 0.1-0.7-0.3-0.9-1.4-0.7-4.1-1.1-6-1.2q1.8-1.5 3.6-2.9c1.6 0.3 5.3 1 7.9 2.5 0.3 0.1 0.7 0 0.8-0.3 0.2-0.3 0.1-0.7-0.2-0.8-2.2-1.3-5.2-2-7.1-2.4q3.8-2.7 7.5-5.1c2.1 0.9 8.8 3.7 11.4 5.9 0.3 0.2 0.7 0.2 0.9-0.1 0.2-0.3 0.2-0.7-0.1-0.9-2.4-2-8.2-4.6-10.9-5.7q4-2.5 7.8-4.6c2.1 0.8 9 3.6 13.6 7.2 0.2 0.2 0.6 0.2 0.9-0.1 0.2-0.3 0.1-0.7-0.1-0.9-4.1-3.2-10-5.8-12.9-7q1.9-1 3.8-1.9c2.2 0.7 9.6 3.3 16.5 8.3 0.3 0.2 0.7 0.1 0.9-0.2 0.2-0.2 0.1-0.6-0.2-0.9-6-4.3-12.4-6.9-15.6-8 4.6-2.1 8.9-3.9 13-5.3 2.4 1.5 11.8 7.4 16 11.3 0.2 0.3 0.6 0.3 0.9 0 0.2-0.2 0.2-0.6-0.1-0.9-3.8-3.6-11.9-8.8-15.2-10.9q4.6-1.6 8.6-2.6c2.2 1.7 10.3 7.8 12.2 9.4 0.2 0.3 0.6 0.3 0.9 0 0.2-0.3 0.2-0.7-0.1-0.9-1.7-1.5-8.5-6.7-11.4-8.9 3.5-0.9 6.7-1.5 9.5-1.9 1.9 1.7 6.6 5.8 7.7 6.9 0.3 0.2 0.7 0.2 0.9 0 0.3-0.3 0.3-0.7 0-0.9-0.9-1-4.8-4.3-7-6.3 5.6-0.8 9-0.8 9-0.8z"/>
			</g>
			<path id="Layer" fill-rule="evenodd" class="s3" d="m398 368.6q-0.6-8.3-0.6-16.1 0-8 0.7-15.4c1.7-18.4 6.1-34.3 12.8-47.9 7.2-14.7 17-26.7 28.6-36.2 10.7-8.9 22.9-15.6 36-20.5 14.1-5.1 29.1-8.2 44.4-9.3q7.7-0.5 15.5-0.5 7.9 0.1 15.7 0.8c0.6 0 1.2 0.3 1.5 0.8 0.4 0.4 0.6 0.9 0.5 1.5v0.2c-0.2 2-4.9 45.6-26.1 84.9-21.5 39.8-59.8 75.4-127.4 59.7-0.4-0.1-0.8-0.3-1.1-0.7-0.3-0.3-0.5-0.8-0.5-1.3zm152.7-141.7c-2.5 1-12.9 5.2-27.4 13.4 5.6 1.1 18.5 3.4 24.3 5.3 1.9-9.3 2.8-16 3.1-18.7zm-3.5 20.7h-0.1c-6.6-2.2-24.1-5.2-26.7-5.7-7.2 4.2-15.4 9.4-24 15.5l45.2 11.9c2.4-7.9 4.2-15.3 5.6-21.7zm-6.2 23.7l-46.8-12.3c-8.1 5.8-16.5 12.5-25.1 20.2 9.3 2.8 53.6 16.4 61.1 20.2 4.5-9.6 8-19.2 10.8-28.1zm-11.6 29.9c-7.6-3.8-56.6-18.8-62.1-20.4-6.8 6.2-13.7 13-20.5 20.4l69.7 22.3q0.1 0 0.2 0.1c3-4.5 5.8-9.1 8.3-13.7q2.3-4.3 4.4-8.7zm-13.9 24.1l-70.2-22.4c-5.2 5.9-10.4 12.1-15.4 18.8 11.3 3.9 69.5 21.9 69.6 22q0.3 0.1 0.4 0.2c5.9-5.7 11-12 15.6-18.6zm-17.2 20.2c-6.1-1.9-60.5-18.9-69.7-22q-6.5 8.7-12.5 18.3c13.7 6.8 59.9 18.8 60 18.8 0.3 0.1 0.5 0.2 0.7 0.5 8-4.3 15.1-9.6 21.5-15.6zm-23.9 16.8c-7.4-2-46.9-12.5-59.4-18.7q-3.9 6.2-7.5 12.8c5.3 2.1 28.9 11.2 44.2 12.7 0.4 0.1 0.8 0.4 0.9 0.8 7.9-1.7 15.1-4.3 21.8-7.6zm-26.3 8.4c-15.7-2.4-37-10.7-41.5-12.4q-2.8 5.1-5.3 10.4c17.5 3.9 33.1 4.3 46.8 2zm-48-4.2q2.4-4.9 4.9-9.6c-2.1-5.9-3.7-16-4.5-21.7q-0.1 1.1-0.2 2.1-0.6 7.3-0.7 15.2 0 6.7 0.5 14zm1.1-36.6c0.4 0.1 0.8 0.5 0.9 0.9 0 0.1 1.6 15 4.2 23.6q3.5-6.4 7.2-12.4c-0.8-2.8-5.3-18.6-6.8-36.5-2.5 7.6-4.3 15.7-5.5 24.4zm6.7-27.8c0.3 0.1 0.6 0.5 0.7 0.9 1.1 16.2 4.9 31.2 6.4 36.7q5.8-9.3 12.1-17.7c-1.3-3.5-8.3-24.9-9.3-40.8q-2.6 4.3-4.9 9-2.8 5.7-5 11.9zm11.4-23.2c0.3 0.1 0.5 0.4 0.5 0.8 0.6 14.3 6.7 34.2 8.8 40.3 4.9-6.5 10-12.7 15.2-18.5-9.3-19.6-10.7-35.6-10.9-39.5-5 5-9.5 10.6-13.6 16.9zm15.4-18.6q0.2 0.2 0.3 0.7c0 0 0.1 17 10.3 38.9 6.8-7.5 13.7-14.3 20.5-20.6-4.1-9.3-8.1-32.6-8.7-35.8-5.7 3.3-11.1 7-16.2 11.2q-3.2 2.6-6.2 5.6zm24.3-17.8q0.1 0.1 0.1 0.3c0 0.1 4.1 24.9 8.3 35.1 8.7-7.8 17.3-14.6 25.4-20.5-3-12-2.9-25-2.9-27q-6.9 1.8-13.6 4.2c-6 2.3-11.8 4.9-17.3 7.9zm33-12.7q0 0.2 0 0.3c0 0-0.4 13.5 2.6 26 8.9-6.3 17.2-11.5 24.6-15.8-0.9-6.6-0.4-13.6-0.3-14.8-9.1 0.8-18.2 2.2-26.9 4.3zm28.9-4.4q0.1 0.1 0 0.1c0 0.1-0.6 6.9 0.2 13.7 13.4-7.6 23.5-12 27.5-13.7q-6.6-0.5-13.2-0.5-7.2-0.1-14.5 0.4z"/>
			<path id="Layer" fill-rule="evenodd" class="s4" d="m647.5 456.7h-566.6c-2.2 0-3.9-1.8-3.9-3.9 0-2.2 1.7-3.9 3.9-3.9h566.6c2.2 0 3.9 1.7 3.9 3.9 0 2.1-1.7 3.9-3.9 3.9z"/>
			<path id="Layer" fill-rule="evenodd" class="s4" d="m67.5 456.7h-8c-2.2 0-3.9-1.8-3.9-3.9 0-2.2 1.7-3.9 3.9-3.9h8c2.1 0 3.9 1.7 3.9 3.9 0 2.1-1.8 3.9-3.9 3.9z"/>
			<path id="Layer" fill-rule="evenodd" class="s4" d="m691.8 456.7h-23.6c-2.1 0-3.9-1.8-3.9-3.9 0-2.2 1.8-3.9 3.9-3.9h23.6c2.2 0 3.9 1.7 3.9 3.9 0 2.1-1.7 3.9-3.9 3.9z"/>
			<g id="Layer">
				<path id="Layer" class="s5" d="m176.2 188.5l15.4 40.9 34.7-23.7 9.7-37.4-4.7-8.4-39.1 3.7-12.4 9.9z"/>
				<path id="Layer" fill-rule="evenodd" class="s0" d="m184.1 181.5c2.9 0 5.2-2.3 5.2-5.2 0-2.8-2.3-5.2-5.2-5.2-2.8 0-5.2 2.4-5.2 5.2 0 2.9 2.4 5.2 5.2 5.2z"/>
				<g id="Layer">
					<path id="Layer" fill-rule="evenodd" class="s6" d="m135.6 196l29.6-33.7c0.2-0.2 0.5-0.2 0.8 0l1.7 1.5c0.2 0.2 0.3 0.5 0.1 0.8l-29.6 33.7c-0.2 0.2-0.6 0.2-0.8 0l-1.7-1.5c-0.3-0.2-0.3-0.5-0.1-0.8zm30.1-32.6l-28.9 32.9 0.9 0.9 28.9-32.9z"/>
					<path id="Layer" fill-rule="evenodd" class="s4" d="m165.3 161.4c1.7-0.2 3.2 0.9 3.4 2.6 0.2 1.6-1 3.1-2.6 3.3-1.6 0.2-3.1-1-3.3-2.6-0.3-1.6 0.9-3.1 2.5-3.3z"/>
					<path id="Layer" fill-rule="evenodd" class="s6" d="m135.8 195.5l2.1-1.1c0.3-0.1 0.6 0 0.7 0.2l20.8 39.8c0.2 0.2 0.1 0.5-0.2 0.7l-2.1 1.1c-0.2 0.1-0.6 0-0.7-0.3l-20.8-39.7c-0.1-0.3 0-0.6 0.2-0.7zm22.4 38.9l-20.3-38.8-1.1 0.6 20.3 38.8z"/>
					<path id="Layer" fill-rule="evenodd" class="s4" d="m156.3 236.9c1.5 0.6 3.3-0.2 3.9-1.7 0.5-1.6-0.2-3.3-1.8-3.9-1.5-0.6-3.2 0.2-3.8 1.7-0.6 1.6 0.2 3.3 1.7 3.9z"/>
					<path id="Layer" fill-rule="evenodd" class="s4" d="m137.3 193.3c1.6-0.2 3.1 1 3.3 2.6 0.2 1.6-0.9 3.1-2.6 3.3-1.6 0.2-3.1-0.9-3.3-2.5-0.2-1.7 1-3.2 2.6-3.4z"/>
				</g>
				<path id="Layer" fill-rule="evenodd" class="s7" d="m155.6 245.2h38.2c3.1 0 5.6-2.5 5.6-5.5 0-3.1-2.5-5.6-5.6-5.6h-38.2c-3.1 0-5.6 2.5-5.6 5.6 0 3 2.5 5.5 5.6 5.5z"/>
				<path id="Layer" fill-rule="evenodd" class="s8" d="m130.1 245.2h38.3c3 0 5.5-2.5 5.5-5.5 0-3.1-2.5-5.6-5.5-5.6h-38.3c-3 0-5.5 2.5-5.5 5.6 0 3 2.5 5.5 5.5 5.5z"/>
				<g id="Layer">
					<path id="Layer" fill-rule="evenodd" class="s8" d="m192 164.1l-15.8 24.4c-0.2 0.3-0.4 0.4-0.7 0.4-0.3-0.1-0.6-0.2-0.7-0.5l-9.1-23.3q-0.2-0.4 0-0.7 0.3-0.3 0.7-0.4l24.9-1.1c0.3 0 0.6 0.1 0.8 0.4 0.1 0.3 0.1 0.6-0.1 0.8z"/>
					<path id="Layer" class="s0" d="m174.4 187.3l-1.3-3.4 13.4-20.8 3.7-0.1z"/>
					<path id="Layer" fill-rule="evenodd" class="s8" d="m168.2 161.4l6.6 4.2c1.8 1.2 2.3 3.6 1.1 5.4-1.2 1.8-3.6 2.3-5.4 1.1l-6.5-4.2c-1.8-1.2-2.3-3.6-1.1-5.4 1.1-1.8 3.5-2.3 5.3-1.1z"/>
					<path id="Layer" fill-rule="evenodd" class="s4" d="m165.2 164c0.6 0.4 0.7 1.1 0.4 1.7-0.4 0.6-1.2 0.7-1.8 0.4-0.5-0.4-0.7-1.2-0.3-1.8 0.3-0.5 1.1-0.7 1.7-0.3z"/>
				</g>
				<path id="Layer" fill-rule="evenodd" class="s0" d="m203.6 189.9c0-0.6-0.5-1.1-1.1-1.1-0.6 0-1.1 0.5-1.1 1.1v2.6h-2.5c-0.6 0-1.1 0.4-1.1 1 0 0.6 0.5 1.1 1.1 1.1h2.5v2.6c0 0.6 0.5 1 1.1 1 0.6 0 1.1-0.4 1.1-1v-2.6h2.5c0.6 0 1.1-0.5 1.1-1.1 0-0.6-0.5-1-1.1-1h-2.5z"/>
				<path id="Layer" fill-rule="evenodd" class="s0" d="m188.5 185.3c0-0.6-0.5-1.1-1.1-1.1-0.6 0-1.1 0.5-1.1 1.1v2.5h-2.5c-0.6 0-1.1 0.5-1.1 1.1 0 0.6 0.5 1.1 1.1 1.1h2.5v2.5c0 0.6 0.5 1.1 1.1 1.1 0.6 0 1.1-0.5 1.1-1.1v-2.5h2.5c0.6 0 1.1-0.5 1.1-1.1 0-0.6-0.5-1.1-1.1-1.1h-2.5z"/>
				<path id="Layer" fill-rule="evenodd" class="s0" d="m224.5 168.3c0-0.6-0.5-1.1-1.1-1.1-0.6 0-1 0.5-1 1.1v2.5h-2.6c-0.6 0-1.1 0.5-1.1 1.1 0 0.6 0.5 1.1 1.1 1.1h2.6v2.5c0 0.6 0.4 1.1 1 1.1 0.6 0 1.1-0.5 1.1-1.1v-2.5h2.6c0.6 0 1-0.5 1-1.1 0-0.6-0.4-1.1-1-1.1h-2.6z"/>
				<path id="Layer" fill-rule="evenodd" class="s0" d="m204.1 172.9c0-0.2-0.3-0.4-0.5-0.4-0.3 0-0.5 0.2-0.5 0.4v1.2h-1.1c-0.3 0-0.5 0.2-0.5 0.4 0 0.3 0.2 0.5 0.5 0.5h1.1v1.1c0 0.3 0.2 0.5 0.5 0.5 0.2 0 0.5-0.2 0.5-0.5v-1.1h1.1c0.2 0 0.4-0.2 0.4-0.5 0-0.2-0.2-0.4-0.4-0.4h-1.1z"/>
				<path id="Layer" fill-rule="evenodd" class="s0" d="m193.1 198.1c0-0.3-0.2-0.5-0.5-0.5-0.2 0-0.4 0.2-0.4 0.5v1.1h-1.1c-0.3 0-0.5 0.2-0.5 0.5 0 0.2 0.2 0.4 0.5 0.4h1.1v1.2c0 0.2 0.2 0.4 0.4 0.4 0.3 0 0.5-0.2 0.5-0.4v-1.2h1.1c0.3 0 0.5-0.2 0.5-0.4 0-0.3-0.2-0.5-0.5-0.5h-1.1z"/>
				<path id="Layer" fill-rule="evenodd" class="s0" d="m215.7 185.9c0-0.3-0.2-0.5-0.4-0.5-0.3 0-0.5 0.2-0.5 0.5v1.1h-1.1c-0.3 0-0.5 0.2-0.5 0.4 0 0.3 0.2 0.5 0.5 0.5h1.1v1.1c0 0.3 0.2 0.5 0.5 0.5 0.2 0 0.4-0.2 0.4-0.5v-1.1h1.1c0.3 0 0.5-0.2 0.5-0.5 0-0.2-0.2-0.4-0.5-0.4h-1.1z"/>
				<path id="Layer" fill-rule="evenodd" class="s0" d="m192.4 175.6c0-0.2-0.3-0.4-0.5-0.4-0.3 0-0.5 0.2-0.5 0.4v1.1h-1.1c-0.3 0-0.5 0.3-0.5 0.5 0 0.3 0.2 0.5 0.5 0.5h1.1v1.1c0 0.3 0.2 0.5 0.5 0.5 0.2 0 0.5-0.2 0.5-0.5v-1.1h1.1c0.2 0 0.4-0.2 0.4-0.5 0-0.2-0.2-0.5-0.4-0.5h-1.1z"/>
				<path id="Layer" fill-rule="evenodd" class="s0" d="m213.6 164.3c0-0.2-0.2-0.5-0.5-0.5-0.2 0-0.5 0.3-0.5 0.5v1.1h-1.1c-0.2 0-0.4 0.2-0.4 0.5 0 0.3 0.2 0.5 0.4 0.5h1.1v1.1c0 0.3 0.3 0.5 0.5 0.5 0.3 0 0.5-0.2 0.5-0.5v-1.1h1.1c0.3 0 0.5-0.2 0.5-0.5 0-0.3-0.2-0.5-0.5-0.5h-1.1z"/>
				<path id="Layer" fill-rule="evenodd" class="s0" d="m233.1 188.8c0-0.3-0.2-0.5-0.4-0.5-0.3 0-0.5 0.2-0.5 0.5v1.1h-1.1c-0.3 0-0.5 0.2-0.5 0.5 0 0.2 0.2 0.4 0.5 0.4h1.1v1.1c0 0.3 0.2 0.5 0.5 0.5 0.2 0 0.4-0.2 0.4-0.5v-1.1h1.2c0.2 0 0.4-0.2 0.4-0.4 0-0.3-0.2-0.5-0.4-0.5h-1.2z"/>
				<path id="Layer" fill-rule="evenodd" class="s0" d="m206.7 216.3c0-0.3-0.2-0.5-0.5-0.5-0.2 0-0.4 0.2-0.4 0.5v1.1h-1.1c-0.3 0-0.5 0.2-0.5 0.4 0 0.3 0.2 0.5 0.5 0.5h1.1v1.1c0 0.3 0.2 0.5 0.4 0.5 0.3 0 0.5-0.2 0.5-0.5v-1.1h1.1c0.3 0 0.5-0.2 0.5-0.5 0-0.2-0.2-0.4-0.5-0.4h-1.1z"/>
				<path id="Layer" fill-rule="evenodd" class="s0" d="m226.3 204.6c0-0.3-0.2-0.5-0.5-0.5-0.3 0-0.5 0.2-0.5 0.5v1.1h-1.1c-0.3 0-0.5 0.2-0.5 0.5 0 0.2 0.2 0.4 0.5 0.4h1.1v1.2c0 0.2 0.2 0.4 0.5 0.4 0.3 0 0.5-0.2 0.5-0.4v-1.2h1.1c0.2 0 0.5-0.2 0.5-0.4 0-0.3-0.3-0.5-0.5-0.5h-1.1z"/>
			</g>
			<g id="Layer">
				<path id="Layer" fill-rule="evenodd" class="s9" d="m480.3 257.2c-0.2-3.1-2.9-5.5-6.1-5.3-3.1 0.2-5.5 2.9-5.3 6.1 0.8 12.1 2.2 25.5 4.1 40.4h-103.8c2.1-14.8 3.7-28.2 5-40.2 0.4-3.1-1.9-6-5.1-6.3-3.1-0.3-5.9 1.9-6.2 5.1-2.6 23.8-6.5 52.7-12.3 88-4.9 29.9-11.3 64.4-19.3 103.9h11.6c7.9-38.8 14.1-72.7 19-102.1 2.1-13.2 4-25.4 5.7-36.9h107c1.6 11.5 3.7 23.8 6.1 37 5.4 29.5 12.8 63.3 22.8 102h11.8c-10.3-39.6-17.9-74.1-23.4-104.1-2.7-14.7-4.9-28.4-6.6-41q-0.1-0.4-0.2-0.8c-2.3-17.1-3.8-32.3-4.8-45.8z"/>
				<g id="Layer">
					<path id="Layer" fill-rule="evenodd" class="s4" d="m243.9 313v78.6h46.4v-78.6c0-1.7 1.4-3.1 3.1-3.1 1.6 0 3 1.4 3 3.1v135.9h-6.1v-40.2h-46.4v40.2h-6v-135.9c0-1.7 1.3-3.1 3-3.1 1.7 0 3 1.4 3 3.1zm46.4 82.3h-46.4v7.3h46.4z"/>
					<path id="Layer" fill-rule="evenodd" class="s10" d="m191.5 313v78.6h46.4v-78.6c0-1.7 1.3-3.1 3-3.1 1.7 0 3 1.4 3 3.1v135.9h-6v-40.2h-46.4v40.2h-6.1v-135.9c0-1.7 1.4-3.1 3.1-3.1 1.6 0 3 1.4 3 3.1zm46.4 82.3h-46.4v7.3h46.4z"/>
					<path id="Layer" fill-rule="evenodd" class="s4" d="m302 313h-118.4c-2.1 0-3.8 1.7-3.8 3.8 0 2.1 1.7 3.8 3.8 3.8h118.4c2.1 0 3.8-1.7 3.8-3.8 0-2.1-1.7-3.8-3.8-3.8z"/>
					<path id="Layer" fill-rule="evenodd" class="s11" d="m306.4 309.2h-127.9c-2 0-3.8 1.7-3.8 3.8 0 2.1 1.8 3.8 3.8 3.8h127.9c2 0 3.8-1.7 3.8-3.8 0-2.1-1.8-3.8-3.8-3.8z"/>
					<path id="Layer" fill-rule="evenodd" class="s12" d="m228.9 309.2h-50.4c-2 0-3.8 1.7-3.8 3.8 0 2.1 1.7 3.8 3.8 3.8h50.4c2.1 0 3.8-1.7 3.8-3.8 0-2.1-1.7-3.8-3.8-3.8z"/>
				</g>
				<path id="Layer" fill-rule="evenodd" class="s8" d="m302.9 210.4c11 2.7 33.1 7.2 40.2 16.2 4.5 5.9 5.2 13.1-2.4 13.1-7.6 0-38.7 0-38.7 0z"/>
				<path id="Layer" fill-rule="evenodd" class="s8" d="m224.9 259l-14.8 13c0 0-8.6-23.6-0.1-44.3 8.4-20.7 40.6-22.2 53.9-23.5 13.2-1.3 30.2 35.5 30.2 35.5z"/>
				<path id="Layer" fill-rule="evenodd" class="s4" d="m279.4 275.6c0 0 28.2 6.4 31.8 7.3 3.5 0.8 13.1 10.4 14.8 19.6 1.7 9.3 17.3 126.5 17.3 126.5 0 0-4 7-4.5 7.2-0.5 0.1-8.2-3.5-8.2-3.5 0 0-27.2-99.5-30.3-108.3-3.2-8.7-2.3-15.2-12-15.2-9.6 0-28.8 0-28.8 0l-7.5-25.5 3-2.9c-3.3 0.1-5.8 0.2-6.3-0.1-1.3-0.8-22.8-8.7-22.8-8.7 0 0 15.4-4.6 16.8-5.1 1.3-0.5 23.5-2.4 23.5-2.4 0 0 0 6.1 1.1 7.4 1.1 1.3 3.5 1.9 3.5 1.9z"/>
				<path id="Layer" fill-rule="evenodd" class="s8" d="m211.8 245.9c-0.2 8-0.5 16.3-1.8 20.7 0.5 2.8 0.1 5.4 0.1 5.4l-0.2 0.6c0.1 0.6 0.3 1 0.3 1 3.5 2.7 7.3 2.8 11.6 4.5v-0.6l-0.2-0.8 12.6 6.1c4.3-0.4 31.4-2.2 38.1-8.7-0.6-6.4 26.5-24.3 33.9-26z"/>
				<path id="Layer" fill-rule="evenodd" class="s13" d="m340.1 431c0 0 1.2-2.7 4.2-1.9 2.9 0.8 20.3 10.4 23 11.5 2.7 1.2 5.5 5.7 3.4 8.3h-41.3c-2.4-1.5-4.8-6.5-2.3-15.3 2.6-8.8 1.9 0.4 13-2.6z"/>
				<path id="Layer" fill-rule="evenodd" class="s14" d="m340.1 431c0 0 1.2-2.7 4.2-1.9 1.8 0.5 9.2 4.4 15.2 7.5-1.8 1.4-5.5 2.5-6.3 2.3-1.1-0.2-13.1-7.9-13.1-7.9z"/>
				<path id="Layer" fill-rule="evenodd" class="s15" d="m326.7 448.9h44.7c0.6 0 1.2-0.6 1.2-1.2v-2.3c0-0.6-0.6-1.2-1.2-1.2h-44.7c-0.6 0-1.2 0.6-1.2 1.2v2.3c0 0.6 0.6 1.2 1.2 1.2z"/>
				<path id="Layer" fill-rule="evenodd" class="s16" d="m218.6 309.1c-16.2 0-16.8-28.3-8.5-37.1 0 0 4.2 3.3 10.8 3.3 11.1-0.1 36.9-6.3 44.8 4.2 7.9 10.5 10.7 28.2 6.2 53.9-4.6 25.7-15.9 99.6-15.9 99.6l-13-1.2c0 0 1.9-104.2 2.1-109.7 0.2-5.6-2.7-12.9-8.7-12.9-5.9 0-17.8-0.1-17.8-0.1z"/>
				<path id="Layer" fill-rule="evenodd" class="s13" d="m253.3 431.8c0 0-4.9-6.1-10.9-1.3 0 0-3.3 1.3-4.5 4.4-1.2 3.1-3.5 4.5-4 7.9-0.4 3.4 0.6 6.1 4.9 6.1 4.3 0 3.9 0 7 0 3 0 7.6 0.5 9.2-3.6 1.6-4.2 0-7.9 0.5-10.1 0.6-2.1-2.2-3.4-2.2-3.4z"/>
				<path id="Layer" fill-rule="evenodd" class="s14" d="m253.3 431.8c0 0-4.9-6.1-10.9-1.3 0 0-0.6 0.3-1.4 0.8-0.4 2.7-0.7 5.6-0.4 6.3 0.5 1.5 8.3 1.1 9.4 0.6 0.8-0.4 2.7-4.3 3.6-6.3q-0.2-0.1-0.3-0.1z"/>
				<path id="Layer" fill-rule="evenodd" class="s15" d="m234.4 448.9h20.4c0.6 0 1.2-0.6 1.2-1.2v-2.3c0-0.6-0.6-1.2-1.2-1.2h-20.4c-0.7 0-1.2 0.6-1.2 1.2v2.3c0 0.6 0.5 1.2 1.2 1.2z"/>
				<path id="Layer" fill-rule="evenodd" class="s9" d="m289.5 277.9q-0.9 0.8-1.7 1.7c-1.3 1.7-2.6 3.8-3.4 6.3-0.1 0.2-0.3 0.3-0.5 0.2q-0.1 0-0.1-0.1-0.3 0.6-0.5 1.2c0 0.2-0.3 0.3-0.5 0.2-0.2 0-0.3-0.3-0.2-0.5 1-3.2 2.8-5.8 4.6-7.8q0.6-0.7 1.2-1.4zm1.3 0.2l1.3 0.4q-1 0.9-2 2.1c-1.3 1.7-2.6 3.8-3.4 6.3 0 0.1-0.2 0.2-0.4 0.2q0 0.2-0.1 0.4c-0.1 0.2-0.3 0.3-0.5 0.3q-0.1-0.1-0.2-0.2v0.1c-0.1 0.2-0.3 0.3-0.5 0.2-0.2 0-0.4-0.3-0.3-0.5 1.4-4.1 3.9-7.2 6.1-9.3zm1.7 0.4l1.4 0.4c-1.9 1.6-4.3 4.1-5.9 7.6q-0.3 0.6-0.5 1.3-0.1 0.1-0.2 0.2-0.1 0.3-0.2 0.7c-0.1 0.2-0.3 0.3-0.5 0.3-0.2-0.1-0.3-0.3-0.3-0.5q0.4-1.2 0.9-2.3c1.4-3.3 3.4-5.8 5.3-7.7zm1.8 0.4l1 0.3c-1 0.9-2.2 2-3.3 3.5-1.2 1.6-2.3 3.5-3 5.7q-0.1 0.2-0.3 0.3 0 0.1 0 0.2c-0.1 0.2-0.3 0.3-0.5 0.2-0.2 0-0.3-0.2-0.3-0.5 0.9-2.5 2.1-4.6 3.5-6.4 0.9-1.3 1.9-2.4 2.9-3.3zm6 1.4q-0.2 0.2-0.4 0.4 0.2-0.2 0.4-0.4l1.2 0.3-0.2 0.1c-2.2 2-5.1 5.2-6.6 9.7-0.1 0.2-0.3 0.4-0.5 0.3-0.2-0.1-0.3-0.3-0.3-0.5q-0.2 0.5-0.3 0.9-0.1 0.2-0.3 0.3 0 0.1-0.1 0.2c0 0.2-0.3 0.3-0.5 0.2-0.2 0-0.3-0.2-0.2-0.5q0.1-0.3 0.2-0.6c-0.2-0.1-0.3-0.3-0.2-0.5 0.5-1.8 1.3-3.3 2.2-4.6l-0.1 0.1-0.1 0.1-0.1 0.2-0.1 0.1-0.1 0.2-0.1 0.1-0.1 0.2-0.1 0.1q-0.1 0.1-0.1 0.2l-0.1 0.1q0 0.1-0.1 0.2l-0.1 0.1q0 0.1-0.1 0.2v0.1q-0.1 0.1-0.2 0.3-0.1 0.2-0.1 0.3h-0.1q0 0.2-0.1 0.3v0.1q-0.1 0.1-0.2 0.3-0.1 0.2-0.1 0.3-0.1 0.2-0.2 0.4-0.1 0.3-0.3 0.7 0 0.2-0.1 0.4-0.1 0.2-0.1 0.3c-0.1 0.2-0.3 0.4-0.5 0.3-0.2-0.1-0.4-0.3-0.3-0.5q0.1-0.2 0.1-0.3 0 0-0.1 0c-0.2-0.1-0.3-0.3-0.2-0.5 0.9-2.7 2.2-4.9 3.6-6.7 1-1.2 2-2.3 3-3.2-2.3 2-5.5 5.3-7.1 10.1 0 0.2-0.2 0.3-0.5 0.2-0.2-0.1-0.3-0.3-0.2-0.5 1.6-4.9 4.8-8.3 7.2-10.3zm2.6 0.5c-2.2 2-5.1 5.3-6.6 9.8-0.1 0.2-0.3 0.3-0.5 0.2q-0.2-0.1-0.3-0.2 0 0.1-0.1 0.2c0 0.3-0.3 0.4-0.5 0.3-0.2-0.1-0.3-0.3-0.2-0.5 1.5-4.7 4.5-8 6.9-10.1zm0.3 0.1l3.4 0.8c-2.4 1.8-5.9 5.3-7.7 10.5 0 0.2-0.2 0.3-0.5 0.3q-0.1-0.1-0.2-0.2c-0.1 0.1-0.2 0.1-0.4 0.1-0.2-0.1-0.3-0.3-0.2-0.5 1.2-3.6 3.2-6.4 5.2-8.4-2 2-4.2 4.8-5.4 8.5-0.1 0.2-0.3 0.3-0.5 0.3-0.2-0.1-0.4-0.3-0.3-0.5v-0.1q-0.1 0-0.3 0c-0.2-0.1-0.3-0.3-0.2-0.5 1.6-4.8 4.7-8.3 7.1-10.3zm3.6 0.8l1 0.3c-2.3 1.7-6.2 5.3-8 10.8-0.1 0.2-0.3 0.3-0.5 0.2-0.2 0-0.4-0.3-0.3-0.5 1.8-5.2 5.4-8.8 7.8-10.8z"/>
				<path id="Layer" fill-rule="evenodd" class="s9" d="m267.1 362.3c-1-0.4-2.2-0.7-3.7-1-2.1-0.2-4.7 0-7.4 0.7-0.3 0.1-0.5-0.1-0.5-0.3q0-0.1 0.1-0.2-0.7 0.1-1.4 0.3c-0.2 0.1-0.4-0.1-0.4-0.3 0-0.2 0.2-0.5 0.4-0.6 3.7-0.9 6.9-0.9 9.5-0.5 1.3 0.2 2.5 0.4 3.6 0.6zm-0.2 1.2l-0.2 1.4c-1-0.3-2.2-0.6-3.5-0.7-2.2-0.2-4.7-0.1-7.5 0.6-0.2 0.1-0.3 0-0.4-0.2q-0.2 0.1-0.4 0.2c-0.3 0-0.5-0.1-0.5-0.4q0-0.1 0.1-0.2h-0.1c-0.2 0-0.4-0.1-0.4-0.3 0-0.3 0.2-0.5 0.4-0.6 5.2-1.4 9.6-0.7 12.5 0.2zm-0.5 3.1c-2.3-0.7-5.8-1.4-9.9-0.8q-0.7 0.1-1.4 0.3-0.2 0.1-0.3 0-0.4 0.1-0.8 0.2c-0.3 0.1-0.4-0.1-0.4-0.3-0.1-0.2 0.1-0.5 0.4-0.5q1.3-0.4 2.6-0.6c4-0.8 7.4-0.4 10 0.3zm-0.1 0.4l-0.1 1c-1.2-0.3-2.7-0.7-4.4-0.8-2-0.1-4.3 0.1-6.8 0.7q-0.3 0.1-0.4-0.1-0.1 0.1-0.2 0.1c-0.3 0.1-0.4-0.1-0.4-0.3-0.1-0.3 0.1-0.5 0.4-0.6 2.8-0.7 5.4-0.9 7.7-0.7 1.6 0.1 3 0.4 4.2 0.7zm-0.4 2.6l-0.1 0.9c-2.8-0.8-7.1-1.5-12.1-0.2-0.2 0.1-0.4 0-0.4-0.3 0-0.2 0.2-0.5 0.4-0.5 5-1.4 9.3-0.8 12.2 0.1zm-0.7 4.6c-2.7-0.6-6.2-0.9-10.3 0.2-0.2 0.1-0.4 0-0.4-0.3 0-0.2 0.2-0.4 0.4-0.5q-0.5 0.1-1.1 0.3-0.2 0-0.3-0.1-0.1 0-0.2 0c-0.3 0.1-0.5-0.1-0.5-0.3 0-0.2 0.2-0.5 0.4-0.5q0.4-0.1 0.8-0.2c0-0.3 0.2-0.5 0.4-0.6 2-0.5 3.8-0.7 5.5-0.8h-0.2-0.2-0.2-0.1-0.2-0.2-0.2-0.1q-0.2 0-0.3 0h-0.1q-0.1 0.1-0.3 0.1h-0.1q-0.1 0-0.3 0h-0.1q-0.1 0-0.3 0-0.2 0-0.4 0.1-0.2 0-0.4 0-0.2 0-0.4 0.1-0.2 0-0.4 0-0.2 0.1-0.4 0.1-0.4 0.1-0.8 0.2-0.2 0-0.4 0.1h-0.1q-0.2 0-0.4 0.1c-0.2 0.1-0.4-0.1-0.4-0.3 0-0.2 0.2-0.5 0.4-0.6q0.2 0 0.3 0h0.1q0-0.1 0-0.1c0-0.3 0.1-0.5 0.4-0.6 3-0.8 5.7-0.9 8-0.7 1.4 0.2 2.6 0.4 3.7 0.7zm0 0.1l-0.3 1.3c-2.6-0.5-5.9-0.6-9.6 0.4-0.2 0.1-0.4 0-0.4-0.3q0-0.2 0.1-0.3-0.1 0-0.3 0c-0.2 0.1-0.4 0-0.4-0.3 0-0.2 0.1-0.4 0.4-0.5 4.1-1.1 7.7-0.9 10.5-0.3zm-0.6 3.4c-2.7-0.6-6.3-0.8-10.4 0.3-0.2 0-0.4-0.1-0.4-0.3 0-0.3 0.2-0.5 0.4-0.6h0.1q-0.1-0.1-0.1-0.3c0-0.2 0.1-0.4 0.4-0.5 4-1.1 7.5-0.9 10.3-0.4zm0 0l-0.2 1.5c-2.7-0.5-6-0.6-9.8 0.4-0.3 0-0.5-0.1-0.5-0.3q0-0.2 0.1-0.3c-0.1-0.1-0.2-0.2-0.2-0.3 0-0.3 0.2-0.5 0.4-0.6 4-1.1 7.5-0.9 10.2-0.4zm-0.4 2.6c-2.7-0.5-6.1-0.6-9.9 0.4-0.3 0.1-0.5-0.1-0.5-0.3 0-0.2 0.2-0.5 0.5-0.6 3.9-1 7.3-0.9 10-0.4z"/>
				<path id="Layer" fill-rule="evenodd" class="s9" d="m327.4 311.5c-1.1-0.3-3.2-0.8-5.8-0.7-2.2 0.2-4.7 0.8-7.3 2-0.2 0.1-0.4 0-0.5-0.2q0-0.1 0.1-0.3-0.7 0.3-1.3 0.6c-0.2 0.1-0.4 0-0.5-0.2 0-0.3 0.1-0.5 0.3-0.6 3.4-1.7 6.6-2.2 9.3-2.2 2.1-0.2 4-0.1 5.5 0.1zm0.1 1.2l0.2 1.4c-1.3-0.4-3.4-0.7-5.9-0.6-2.2 0.3-4.7 0.8-7.2 2.1-0.2 0-0.4 0-0.5-0.2q-0.2 0.1-0.4 0.2c-0.2 0.1-0.4 0-0.5-0.2q0-0.1 0.1-0.3h-0.1c-0.2 0.1-0.4 0-0.5-0.2 0-0.2 0.1-0.5 0.3-0.6 6.2-2.9 11.8-2.3 14.5-1.6zm0.5 3.3c-1.9-0.6-6.7-1.6-12.5 0.3q-0.6 0.3-1.3 0.6-0.2 0.1-0.3 0.1-0.4 0.1-0.8 0.3c-0.2 0.1-0.4 0-0.5-0.2 0-0.2 0.1-0.5 0.3-0.6q1.3-0.6 2.5-1c5.1-2 9.7-1.7 12.4-1.2zm0.2 1.4c-1.5-0.4-4.1-0.9-7.3-0.6-2 0.3-4.2 0.9-6.6 2q-0.2 0.1-0.4 0-0.1 0-0.2 0.1c-0.2 0.1-0.4 0-0.5-0.3 0-0.2 0.1-0.5 0.4-0.6 2.6-1.3 5.2-1.9 7.4-2.1 2.9-0.3 5.3-0.1 7 0.3zm0.2 1.6l0.3 2q-0.5-0.1-1.2-0.3h0.1l0.1 0.1h0.1 0.2 0.1v0.1h0.1 0.1 0.1v0.1h0.1 0.1 0.1l0.2 1.4q-0.9-0.2-2.1-0.4 1.2 0.2 2.1 0.4l0.3 2.5c-2.8-0.5-7.7-0.8-13.1 1.8-0.2 0.1-0.4 0-0.5-0.2q0-0.2 0.1-0.4-0.1 0-0.3 0.1c-0.2 0.1-0.4 0-0.4-0.2-0.1-0.2 0.1-0.5 0.3-0.6 5.2-2.5 10-2.4 13-1.9q-0.3-0.1-0.8-0.3c-2.9-0.3-7.3-0.3-12 2-0.2 0.1-0.5 0-0.5-0.2 0-0.3 0.1-0.5 0.3-0.6q-0.5 0.2-1 0.4-0.2 0.1-0.4 0-0.1 0-0.2 0.1c-0.2 0.1-0.4 0-0.5-0.3 0-0.2 0.1-0.5 0.3-0.6q0.4-0.1 0.8-0.3c-0.1-0.2 0.1-0.5 0.3-0.6 1.8-0.9 3.6-1.4 5.2-1.7h-0.2-0.1-0.3l-0.1 0.1h-0.2-0.2l-0.2 0.1h-0.1q-0.1 0-0.3 0.1h-0.1q-0.1 0-0.2 0l-0.1 0.1q-0.2 0-0.3 0l-0.1 0.1q-0.1 0-0.3 0l-0.1 0.1q-0.1 0-0.3 0.1-0.2 0-0.4 0.1-0.2 0-0.3 0.1h-0.1q-0.2 0.1-0.3 0.1h-0.1q-0.1 0.1-0.3 0.2-0.4 0.1-0.8 0.3-0.2 0.1-0.4 0.2-0.2 0.1-0.4 0.2c-0.2 0.1-0.4 0-0.5-0.3 0-0.2 0.1-0.5 0.3-0.6q0.2 0 0.3-0.1 0-0.1 0-0.1c0-0.2 0.1-0.5 0.3-0.6 2.8-1.3 5.5-1.9 7.8-2.1 1.6-0.2 3.1-0.1 4.3 0-2.9-0.5-7.4-0.5-12.5 1.9-0.2 0.1-0.4 0-0.4-0.3-0.1-0.2 0.1-0.5 0.3-0.6 6.6-3.1 12.5-2.1 15-1.5zm1.4 9.7c-2.8-0.6-8-1.1-13.7 1.6-0.3 0.1-0.5 0-0.5-0.2q0-0.2 0-0.3-0.2-0.1-0.3-0.3c0-0.2 0.1-0.5 0.3-0.6 3.8-1.8 7.4-2.3 10.2-2.2-2.8-0.1-6.5 0.2-10.4 2.1-0.2 0.1-0.4 0-0.5-0.2 0-0.3 0.1-0.5 0.3-0.6l0.1-0.1q-0.1 0-0.1-0.2c-0.1-0.3 0.1-0.5 0.3-0.6 5.7-2.8 10.9-2.4 13.8-1.8zm0 0.2l0.2 1c-2.7-0.6-8-1.3-14 1.6-0.2 0.1-0.4 0-0.5-0.3 0-0.2 0.1-0.5 0.3-0.6 5.9-2.7 11.1-2.3 14-1.7z"/>
				<path id="Layer" fill-rule="evenodd" class="s9" d="m242.3 257.2c-0.2-3.1-2.9-5.5-6-5.3-3.2 0.2-5.6 2.9-5.4 6.1 0.9 12.1 2.2 25.5 4.1 40.4h-103.7c2-14.8 3.6-28.2 4.9-40.2 0.4-3.1-1.9-6-5-6.3-3.2-0.3-6 1.9-6.3 5.1-2.6 23.8-6.5 52.7-12.3 88-4.9 29.9-11.3 64.4-19.3 103.9h11.7c7.8-38.8 14-72.7 18.9-102.1q3.2-19.7 5.7-36.9h107c1.7 11.5 3.7 23.8 6.1 37 5.4 29.5 12.8 63.3 22.9 102h11.7c-10.3-39.6-17.9-74.1-23.4-104.1-2.7-14.7-4.9-28.4-6.6-41q0-0.4-0.1-0.8c-2.4-17.1-3.9-32.3-4.9-45.8z"/>
				<path id="Layer" fill-rule="evenodd" class="s11" d="m487.4 243.9h-260.3c-3 0-5.5 2.5-5.5 5.5v12.4c0 3 2.5 5.5 5.5 5.5h260.3c3 0 5.5-2.5 5.5-5.5v-12.4c0-3-2.5-5.5-5.5-5.5z"/>
				<path id="Layer" fill-rule="evenodd" class="s4" d="m487.3 243.9h-317.7c-3 0-5.5 2.5-5.5 5.5v7.4h108.9 219.9v-7.4c0-3-2.5-5.5-5.6-5.5z"/>
				<path id="Layer" fill-rule="evenodd" class="s11" d="m492.8 239.7h-271.2c-3.3 0-6 2.6-6 5.9 0 3.3 2.7 6 6 6h271.2c3.3 0 6-2.7 6-6 0-3.3-2.7-5.9-6-5.9z"/>
				<path id="Layer" fill-rule="evenodd" class="s12" d="m243.9 243.9h-119.3c-3.1 0-5.5 2.5-5.5 5.5v12.4c0 3 2.4 5.5 5.5 5.5h119.3c3.1 0 5.6-2.5 5.6-5.5v-12.4c0-3-2.5-5.5-5.6-5.5z"/>
				<path id="Layer" fill-rule="evenodd" class="s9" d="m241.3 243.9h-114.1c-4.5 0-8.1 2.5-8.1 5.5v7.4h130.4v-7.4c0-3-3.7-5.5-8.2-5.5z"/>
				<path id="Layer" fill-rule="evenodd" class="s12" d="m249.5 239.7h-133.7c-3.3 0-6 2.6-6 5.9 0 3.3 2.7 6 6 6h133.7c3.2 0 5.9-2.7 5.9-6 0-3.3-2.7-5.9-5.9-5.9z"/>
				<path id="Layer" fill-rule="evenodd" class="s17" d="m313.5 239.7c0 0-5.8-6.6-4.3-14.4 1.4-7.7 1.5-22.7-6.7-26.9-8.2-4.3-18.2-3.7-22.5 2.4 0 0-2.4-3.3-5-3.2-2.6 0.1-0.4 4.3 0.2 4.8-26.8-8.3-2.9 31.8-21.8 37.3z"/>
				<path id="Layer" fill-rule="evenodd" class="s4" d="m313.5 239.7c0 0-5.8-6.6-4.3-14.4q0.2-1.6 0.4-3.5c-8.8 3.2-29.6 9.2-39.1-0.3-4.9-5-7.3-10.5-8.4-15.2-2.5 8.3 2.5 24.3-4.5 31 2.3 0.6 4.8 1.3 7.6 2.4 0 0 48.3 0 48.3 0z"/>
				<path id="Layer" fill-rule="evenodd" class="s18" d="m342.1 239.7c5.4-4.2 2.2-18.3-10.8-14.5-9.3 2.8-25.1 8.3-27.1 8.7-2.6 0.6-8.6 0-10.1 0-1.5 0-5.3 1.5-5.3 5.8h52.7z"/>
				<path id="Layer" fill-rule="evenodd" class="s18" d="m215.5 239.7c0 0-3.9-2-3.5-6.8 0.4-4.9 6.2-9.7 10.6-10.2 4.4-0.5 52.3 10.2 56.7 10.8 4.5 0.6 14.6 0 17.1 0 2.6 0 9 1.6 9 6.2h-88.8c0 0-1.1 0-1.1 0z"/>
			</g>
			<g id="Layer">
				<path id="Layer" fill-rule="evenodd" class="s19" d="m348.6 201.3c0 0-0.7-2.5-2.9-2.7-2.1-0.1-3 2.6-2.3 2.9 0.6 0.4 5.2-0.2 5.2-0.2z"/>
				<path id="Layer" fill-rule="evenodd" class="s19" d="m346.7 205.9l0.6-0.1q0 0 0 0l2-0.4c-2.4 6.6-9.1 5.6-6.4 0.6l3.3-0.7v0.3c0 0.2 0.2 0.4 0.4 0.3z"/>
				<path id="Layer" fill-rule="evenodd" class="s0" d="m450.1 142.9h-94.2c-2.6 0-5.1 2.2-5.7 4.7l-13.2 63.8c-0.6 2.6 1.1 4.7 3.7 4.7h94.2c2.6 0 5.1-2.1 5.7-4.7l13.2-63.8c0.6-2.5-1.1-4.7-3.7-4.7z"/>
				<path id="Layer" fill-rule="evenodd" class="s20" d="m450.1 142.9h-91.1c-2.6 0-5.1 2.2-5.7 4.7l-13.3 63.8c-0.5 2.6 1.2 4.7 3.8 4.7h91.1c2.6 0 5.1-2.1 5.7-4.7l13.2-63.8c0.6-2.5-1.1-4.7-3.7-4.7z"/>
				<path id="Layer" fill-rule="evenodd" class="s21" d="m375.1 216.1h23.1c0.4-0.9 0.6-1.5 0.6-1.7 0-0.9-5.3-16.8-13-19.3l-4.5-0.1z"/>
				<path id="Layer" fill-rule="evenodd" class="s22" d="m441.4 187.4h-91.5c-1 0-2 0.8-2.2 1.8-0.2 1 0.5 1.8 1.5 1.8h91.4c1 0 2-0.8 2.2-1.8 0.3-1-0.4-1.8-1.4-1.8z"/>
				<path id="Layer" fill-rule="evenodd" class="s22" d="m439.2 192.9h-89.4c-1.6 0-3.1 1.3-3.5 2.9l-3 14.9c-0.4 1.5 0.6 2.8 2.2 2.8h89.4c1.6 0 3.1-1.3 3.5-2.8l3.1-14.9c0.3-1.6-0.7-2.9-2.3-2.9z"/>
				<path id="Layer" fill-rule="evenodd" class="s21" d="m375.9 213.5h22.7c-1.1-3.6-6-16.2-12.8-18.4l-4.5-0.1z"/>
				<path id="Layer" fill-rule="evenodd" class="s21" d="m438.5 157.8h-15.5c-1 0-1.9 0.8-2.1 1.7l-4.7 22.5c-0.2 1 0.4 1.7 1.4 1.7h15.5c0.9 0 1.9-0.7 2.1-1.7l4.7-22.5c0.2-0.9-0.4-1.7-1.4-1.7z"/>
				<path id="Layer" fill-rule="evenodd" class="s22" d="m440.6 157.8h-15.6c-0.9 0-1.9 0.8-2.1 1.7l-4.7 22.5c-0.2 1 0.5 1.7 1.4 1.7h15.5c1 0 2-0.7 2.2-1.7l4.6-22.5c0.2-0.9-0.4-1.7-1.3-1.7z"/>
				<path id="Layer" fill-rule="evenodd" class="s21" d="m436.6 170.8c-0.5 0-1 0.4-1.1 0.9l-1.6 7.8c-0.1 0.5 0.2 0.9 0.7 0.9 0.5 0 1-0.4 1.1-0.9l1.6-7.8c0.1-0.5-0.2-0.9-0.7-0.9z"/>
				<path id="Layer" fill-rule="evenodd" class="s21" d="m432.2 170.8c-0.5 0-1 0.4-1.1 0.9l-1.6 7.8c-0.1 0.5 0.2 0.9 0.7 0.9 0.5 0 1-0.4 1.1-0.9l1.7-7.8c0.1-0.5-0.3-0.9-0.8-0.9z"/>
				<path id="Layer" fill-rule="evenodd" class="s21" d="m427.8 170.8c-0.5 0-1 0.4-1.1 0.9l-1.6 7.8c-0.1 0.5 0.2 0.9 0.7 0.9 0.5 0 1-0.4 1.1-0.9l1.7-7.8c0.1-0.5-0.3-0.9-0.8-0.9z"/>
				<path id="Layer" fill-rule="evenodd" class="s21" d="m423.5 170.8c-0.6 0-1.1 0.4-1.2 0.9l-1.6 7.8c-0.1 0.5 0.2 0.9 0.7 0.9 0.6 0 1.1-0.4 1.2-0.9l1.6-7.8c0.1-0.5-0.2-0.9-0.7-0.9z"/>
				<path id="Layer" fill-rule="evenodd" class="s22" d="m449.5 148.6h-91.5c-1 0-2 0.8-2.2 1.8-0.2 1 0.4 1.8 1.4 1.8h91.5c1 0 2-0.8 2.2-1.8 0.2-1-0.4-1.8-1.4-1.8z"/>
				<path id="Layer" fill-rule="evenodd" class="s21" d="m438.9 195.3c-0.1 0.4-0.4 0.7-0.8 0.7h-88.4c-0.4 0-0.7-0.3-0.6-0.7 0.1-0.4 0.5-0.7 0.9-0.7h88.4c0.4 0 0.6 0.3 0.5 0.7zm-3.2 15.2c0 0.4-0.4 0.7-0.8 0.7h-88.4c-0.4 0-0.7-0.3-0.6-0.7 0.1-0.4 0.5-0.7 0.9-0.7h88.4c0.4 0 0.6 0.3 0.5 0.7zm0.7-3c-0.1 0.4-0.5 0.7-0.9 0.7h-88.4c-0.4 0-0.6-0.3-0.5-0.7 0-0.4 0.4-0.7 0.8-0.7h88.4c0.4 0 0.7 0.3 0.6 0.7zm0.6-3.1c-0.1 0.4-0.5 0.7-0.8 0.7h-88.4c-0.4 0-0.7-0.3-0.6-0.7 0.1-0.4 0.5-0.7 0.9-0.7h88.4c0.3 0 0.6 0.3 0.5 0.7zm0.7-3c-0.1 0.4-0.5 0.7-0.9 0.7h-88.4c-0.4 0-0.7-0.3-0.6-0.7 0.1-0.4 0.5-0.7 0.9-0.7h88.4c0.4 0 0.6 0.3 0.6 0.7zm0.6-3.1c-0.1 0.4-0.5 0.8-0.9 0.8h-88.4c-0.4 0-0.6-0.4-0.5-0.8 0-0.4 0.4-0.7 0.8-0.7h88.4c0.4 0 0.7 0.3 0.6 0.7z"/>
				<path id="Layer" fill-rule="evenodd" class="s23" d="m381.1 196h6.6q-0.9-0.6-1.9-0.9l-4.5-0.1zm-0.4 1.7l-0.5 1.4h11q-0.7-0.8-1.4-1.4zm-0.9 3l-0.4 1.4h14.1q-0.5-0.7-1-1.4zm-0.9 3.1l-0.4 1.4h16.7q-0.3-0.7-0.7-1.4zm-0.9 3l-0.5 1.4h19.2q-0.3-0.7-0.7-1.4zm-0.9 3.1l-0.4 1.4h21.3q-0.3-0.7-0.6-1.4z"/>
				<path id="Layer" fill-rule="evenodd" class="s21" d="m361 169.2h-1.6c-0.5 0-1.1 0.5-1.2 1l-1 4.7c-0.1 0.6 0.2 1 0.8 1h1.6c0.6 0 1.2-0.4 1.3-1l1-4.7c0.1-0.5-0.3-1-0.9-1z"/>
				<path id="Layer" fill-rule="evenodd" class="s22" d="m363.8 159.2h-3c-1.1 0-2.1 0.9-2.4 2l-1.8 8.7c-0.2 1.1 0.5 1.9 1.6 1.9h3c1.1 0 2.2-0.8 2.4-1.9l1.8-8.7c0.2-1.1-0.5-2-1.6-2z"/>
				<path id="Layer" fill-rule="evenodd" class="s22" d="m414.6 156.1h-40.1c-0.8 0-1.6 0.7-1.8 1.5l-5 24.1c-0.2 0.8 0.4 1.5 1.2 1.5h40.1c0.8 0 1.6-0.7 1.8-1.5l5-24.1c0.2-0.8-0.4-1.5-1.2-1.5z"/>
				<path id="Layer" fill-rule="evenodd" class="s0" d="m411.7 159.6h-21.5c-0.4 0-0.9 0.3-1 0.8 0 0.4 0.2 0.8 0.7 0.8h21.5c0.5 0 0.9-0.4 1-0.8 0.1-0.5-0.2-0.8-0.7-0.8z"/>
				<path id="Layer" fill-rule="evenodd" class="s21" d="m410.9 163.5h-34c-0.4 0-0.8 0.4-0.9 0.8-0.1 0.5 0.2 0.8 0.6 0.8h34c0.4 0 0.9-0.3 0.9-0.8 0.1-0.4-0.1-0.8-0.6-0.8z"/>
				<path id="Layer" fill-rule="evenodd" class="s21" d="m410.1 167.6h-34c-0.4 0-0.9 0.3-1 0.8 0 0.4 0.2 0.8 0.7 0.8h34c0.4 0 0.8-0.4 0.9-0.8 0.1-0.5-0.2-0.8-0.6-0.8z"/>
				<path id="Layer" fill-rule="evenodd" class="s21" d="m409.2 171.6h-33.9c-0.5 0-0.9 0.4-1 0.8-0.1 0.4 0.2 0.8 0.6 0.8h34c0.4 0 0.9-0.4 1-0.8 0.1-0.4-0.2-0.8-0.7-0.8z"/>
				<path id="Layer" fill-rule="evenodd" class="s21" d="m408.4 175.6h-34c-0.4 0-0.8 0.4-0.9 0.8-0.1 0.5 0.2 0.8 0.6 0.8h34c0.4 0 0.8-0.3 0.9-0.8 0.1-0.4-0.2-0.8-0.6-0.8z"/>
				<path id="Layer" fill-rule="evenodd" class="s21" d="m407.6 179.7h-34c-0.5 0-0.9 0.3-1 0.8-0.1 0.4 0.2 0.8 0.6 0.8h34c0.5 0 0.9-0.4 1-0.8 0.1-0.5-0.2-0.8-0.6-0.8z"/>
				<path id="Layer" fill-rule="evenodd" class="s21" d="m377.8 159.6h8.4c0.5 0 0.7 0.3 0.6 0.8 0 0.4-0.5 0.8-0.9 0.8h-8.5c-0.4 0-0.7-0.4-0.6-0.8 0.1-0.5 0.5-0.8 1-0.8z"/>
				<path id="Layer" fill-rule="evenodd" class="s21" d="m384.7 195.6c-0.7 0-1.9 0.2-1.9-0.5 0-0.8 0.6-1.4 1.3-1.4h26.8c0.8 0 5.2 0.2 5.5 5.4 0.1 1.7 0.9 7.1 1.7 12.9 0.8 5.7 1.7 12.1 2.3 15.7q0.2 1.5 0.2 3c0 2-0.4 4-1.3 5.6-1 1.7-2.7 2.9-5.2 3.2q-0.7 0.2-1.5 0.2h-28.6c-0.7 0-1.3-0.6-1.3-1.4 0-0.7 1.2-0.4 1.9-0.4l4.9-0.9q0.6 0 1.1-0.1c1.6-0.3 2.6-1 3.2-2 0.7-1.1 1-2.7 1-4.2q-0.1-1.4-0.2-2.6c-0.5-3.4-1.8-9.6-2.6-15.7-0.9-5.9-1.6-11.4-1.7-13.2-0.2-2.7-2.4-2.8-2.8-2.8q0 0-0.1 0z"/>
				<path id="Layer" fill-rule="evenodd" class="s0" d="m382.7 196.4c-0.7 0-1.4-0.6-1.4-1.3 0-0.8 0.7-1.4 1.4-1.4h2.7c0.8 0 5.2 0.2 5.6 5.4 0.1 1.7 0.8 7.1 1.6 12.9 0.8 5.7 1.8 12.1 2.3 15.7q0.2 1.5 0.2 3c0 2-0.3 4-1.3 5.6-1 1.7-2.6 2.9-5.1 3.2q-0.7 0.2-1.5 0.2h-7.4c-0.7 0-1.3-0.6-1.3-1.4 0-0.7 0.6-1.3 1.3-1.3h7.4q0.6 0 1.1-0.1c1.6-0.3 2.6-1 3.2-2 0.7-1.1 0.9-2.7 0.9-4.2q0-1.4-0.2-2.6c-0.5-3.4-1.4-9.6-2.2-15.7-0.9-5.9-1.6-11.4-1.7-13.2-0.2-2.7-2.4-2.8-2.8-2.8q0 0-0.1 0z"/>
			</g>
			<g id="Layer">
				<path id="Layer" fill-rule="evenodd" class="s24" d="m293.9 130c1.9 9 10 15.8 19.6 15.8h28v24c0 4.1-3.3 7.4-7.3 7.4h-49l-12.5 12.5c-0.3 0.2-0.6 0.3-0.9 0.1-0.4-0.1-0.5-0.4-0.5-0.7v-19.3-2.2-30.3c0-4 3.3-7.3 7.3-7.3 0 0 15.3 0 15.3 0z"/>
				<path id="Layer" fill-rule="evenodd" class="s25" d="m332.4 127.8h-55.6c-4.1 0-7.4 3.3-7.4 7.4v30.2 2.3 19.3c0 0.3 0.2 0.6 0.5 0.7 0.3 0.1 0.7 0.1 0.9-0.2l12.5-12.5h49.1c4 0 7.3-3.3 7.3-7.3v-32.5c0-4.1-3.3-7.4-7.3-7.4z"/>
				<g id="Layer">
					<g id="Layer">
						<path id="Layer" fill-rule="evenodd" class="s0" d="m290.7 156.5h-2.6v3.9h-1.8v-3.9h-8.3v-1.7l8.1-11.5h2v11.4h2.6zm-4.4-1.7v-5.6q0-0.7 0-1.2 0-0.5 0-0.9 0-0.5 0-0.9 0.1-0.4 0.1-0.8h-0.1q-0.2 0.5-0.5 1-0.3 0.5-0.6 0.9l-5.3 7.5z"/>
						<path id="Layer" fill-rule="evenodd" class="s0" d="m304.9 151.9q0 2.1-0.4 3.7-0.3 1.6-0.9 2.8-0.7 1.1-1.8 1.7-1.1 0.6-2.6 0.6-1.9 0-3.1-1.1-1.3-1-1.9-3-0.6-1.9-0.6-4.7 0-2.8 0.6-4.7 0.5-2 1.8-3.1 1.2-1 3.2-1 1.9 0 3.2 1 1.2 1.1 1.9 3 0.6 2 0.6 4.8zm-9.3 0q0 2.4 0.3 3.9 0.4 1.6 1.2 2.4 0.8 0.8 2.1 0.8 1.3 0 2.2-0.8 0.8-0.8 1.1-2.3 0.4-1.6 0.4-4 0-2.4-0.4-4-0.3-1.5-1.1-2.3-0.8-0.8-2.2-0.8-1.3 0-2.1 0.8-0.8 0.8-1.2 2.3-0.3 1.6-0.3 4z"/>
						<path id="Layer" fill-rule="evenodd" class="s0" d="m320.5 156.5h-2.5v3.9h-1.9v-3.9h-8.3v-1.7l8.2-11.5h2v11.4h2.5zm-4.4-1.7v-5.6q0-0.7 0-1.2 0-0.5 0-0.9 0.1-0.5 0.1-0.9 0-0.4 0-0.8h-0.1q-0.2 0.5-0.5 1-0.3 0.5-0.6 0.9l-5.2 7.5z"/>
						<path id="Layer" class="s0" d="m329 159.2q0-0.8 0.4-1.1 0.4-0.4 0.9-0.4 0.6 0 1 0.4 0.4 0.3 0.4 1.1 0 0.8-0.4 1.2-0.4 0.4-1 0.4-0.5 0-0.9-0.4-0.4-0.4-0.4-1.2zm2-3.5h-1.3l-0.5-12.3h2.3z"/>
					</g>
				</g>
			</g>
			<g id="Layer">
				<path id="Layer" fill-rule="evenodd" class="s26" d="m135.5 328.2c14.7-7.8 18.4 9.2 12.7 23.2-5.7 14-34.9 61.2-36.5 79.9-0.5 7.3-1.9 6.5-3.1 1.4-5.7-25.4 6.8-93.8 26.9-104.5z"/>
				<g id="Layer">
					<path id="Layer" fill-rule="evenodd" class="s27" d="m104.5 263.9c-16.8-15.1-27.3 6.1-24.4 26.5 2.9 20.4 26 92.4 21.8 117.7-1.6 9.8 0.5 9.2 3.7 2.8 16-31.6 22-126.2-1.1-147z"/>
					<path id="Layer" fill-rule="evenodd" class="s28" d="m101.6 415.1c0.3 0.9 1.1 0.5 2.2-1.1 17.5-58.3-9.8-145.5-9.8-145.7-0.2-0.5-0.7-0.8-1.2-0.6-0.5 0.1-0.7 0.6-0.6 1.1 0.1 0.3 27.7 88.6 9.4 146.3z"/>
				</g>
				<g id="Layer">
					<path id="Layer" fill-rule="evenodd" class="s29" d="m67.8 312.4c-16.3-7.1-18.8 11.3-11.6 25.8 7.3 14.5 42.4 62.4 45.6 82.2 1.2 7.7 2.6 6.7 3.4 1.2 4-27.5-15-99.5-37.4-109.2z"/>
					<path id="Layer" fill-rule="evenodd" class="s30" d="m103.3 425.7c0.5 0.6 0.9 0.1 1.3-1.3-1.4-47.9-43.4-106-43.6-106.2-0.2-0.3-0.6-0.4-1-0.1-0.3 0.2-0.4 0.7-0.1 1 0.1 0.2 42.7 59.1 43.4 106.6z"/>
				</g>
				<g id="Layer">
					<path id="Layer" class="s9" d="m90.7 416.3h31.3l8.2 7.4-6.7 25.7h-17.1-17.2l-6.6-25.7z"/>
					<path id="Layer" fill-rule="evenodd" class="s9" d="m82.6 405.6h47.6c1.4 0 2.6 1.1 2.6 2.6v11.7c0 1.4-1.2 2.6-2.6 2.6h-47.6c-1.5 0-2.6-1.2-2.6-2.6v-11.7c0-1.5 1.1-2.6 2.6-2.6z"/>
					<path id="Layer" class="s6" d="m130.2 423.7l-1.4 5.3h-44.9l-1.3-5.3z"/>
				</g>
			</g>
			<path id="Layer" fill-rule="evenodd" class="s24" d="m171 75.3v-3.4q0-0.3 0.2-0.5 0.2-0.2 0.5-0.2h4.2q0.3 0 0.5 0.2 0.2 0.2 0.2 0.5v3.4c0 0.1 0.1 0.3 0.3 0.3q1.3 0.4 2.5 1.1 1.1 0.7 2.1 1.6c0.1 0.1 0.3 0.2 0.5 0.1l2.9-1.7q0.3-0.2 0.6-0.1 0.2 0.1 0.4 0.4v-0.1l2.1 3.6q0.1 0.3 0 0.6 0 0.3-0.3 0.4l-2.9 1.7c-0.1 0.1-0.2 0.3-0.2 0.4q0.2 0.7 0.3 1.4 0 0.6 0 1.3 0 0.7 0 1.4-0.1 0.7-0.3 1.3c0 0.2 0 0.3 0.2 0.4l2.9 1.7q0.3 0.2 0.3 0.5 0.1 0.2 0 0.5l-2.1 3.6q-0.2 0.3-0.4 0.3-0.3 0.1-0.6 0l-2.9-1.7c-0.1-0.1-0.3-0.1-0.5 0q-0.9 1-2.1 1.7-1.2 0.6-2.5 1c-0.2 0.1-0.3 0.2-0.3 0.4v3.4q0 0.3-0.2 0.5-0.2 0.2-0.5 0.2h-4.2q-0.3 0-0.5-0.2-0.2-0.2-0.2-0.5v-3.4c0-0.2-0.1-0.3-0.3-0.4q-1.3-0.4-2.4-1-1.2-0.7-2.2-1.7c-0.1-0.1-0.3-0.1-0.5 0l-2.9 1.6v0.1q-0.3 0.1-0.5 0-0.3 0-0.5-0.3l-2.1-3.6q-0.1-0.3 0-0.5 0.1-0.3 0.3-0.5l2.9-1.7c0.2 0 0.3-0.2 0.2-0.4q-0.1-0.6-0.2-1.3-0.1-0.7-0.1-1.4 0-0.7 0.1-1.3 0.1-0.7 0.2-1.4c0.1-0.1 0-0.3-0.2-0.4l-2.9-1.7q-0.2-0.1-0.3-0.4-0.1-0.3 0-0.6l2.1-3.5q0.2-0.3 0.5-0.4 0.2-0.1 0.5 0.1l2.9 1.7c0.2 0.1 0.4 0 0.5-0.1q1-0.9 2.2-1.6 1.1-0.7 2.4-1.1c0.2 0 0.3-0.2 0.3-0.3zm-3.5 11c0 1.8 0.7 3.3 1.9 4.5 1.1 1.1 2.7 1.8 4.4 1.8 1.8 0 3.3-0.7 4.5-1.8 1.1-1.2 1.8-2.7 1.8-4.5 0-1.7-0.7-3.3-1.8-4.4-1.2-1.2-2.7-1.9-4.5-1.9-1.7 0-3.3 0.7-4.4 1.9-1.2 1.1-1.9 2.7-1.9 4.4z"/>
			<path id="Layer" fill-rule="evenodd" class="s24" d="m214.4 97.4h0.1q0 0 0.1 0 0-0.1 0-0.1v-7.6c0-0.7 0.3-1.2 0.7-1.7q0.3-0.3 0.7-0.5 0.4-0.1 0.9-0.1h9.3q0.5 0 0.9 0.1 0.4 0.2 0.7 0.5 0.4 0.4 0.5 0.8 0.2 0.4 0.2 0.9v7.6q0 0 0.1 0.1 0 0 0.1 0 1.5 0.5 2.9 1.1 1.4 0.6 2.8 1.4 1.3 0.7 2.6 1.7 1.2 0.9 2.4 2 0 0.1 0.1 0.1 0 0 0.1 0l6.1-3.6 0.5-0.2q0.4-0.3 0.8-0.3 0.5-0.1 0.9 0 0.5 0.2 0.8 0.4 0.1 0.1 0.2 0.2l0.1-0.1c1.6 2.9 3.4 5.8 5 8.7q0.2 0.4 0.3 0.8 0 0.5-0.1 0.9-0.1 0.5-0.4 0.8-0.3 0.4-0.7 0.6l-6.5 3.8q-0.1 0-0.1 0.1 0 0.1 0 0.1 0.2 0.8 0.3 1.5 0.2 0.8 0.3 1.6 0 0.7 0.1 1.5 0 0.8 0 1.6 0 0.8 0 1.6-0.1 0.8-0.1 1.5-0.1 0.8-0.3 1.6-0.1 0.4-0.2 0.8h0.1l-0.2 0.7q0 0.1 0 0.1 0 0.1 0.1 0.1l6.5 3.8q0.4 0.2 0.7 0.6 0.3 0.4 0.4 0.8 0.1 0.4 0.1 0.9 0 0.1-0.1 0.2l0.1 0.1c-1.6 2.8-3.3 5.9-5 8.6q-0.2 0.4-0.6 0.7-0.3 0.3-0.8 0.4-0.4 0.1-0.9 0.1-0.4-0.1-0.8-0.3l-6.6-3.8q0-0.1-0.1-0.1-0.1 0-0.1 0.1-1.1 1.1-2.4 2-1.2 1-2.6 1.8-1.3 0.7-2.8 1.3-1.4 0.6-2.9 1.1-0.1 0-0.1 0.1-0.1 0-0.1 0.1v7.6q0 0.4-0.2 0.8-0.1 0.5-0.5 0.8-0.3 0.3-0.7 0.5-0.4 0.2-0.9 0.2h-9.3q-0.5 0-0.9-0.2-0.4-0.2-0.7-0.5-0.3-0.3-0.5-0.8-0.2-0.4-0.2-0.8v-7.6q0-0.1 0-0.1-0.1-0.1-0.1-0.1-1.5-0.4-3-1-1.4-0.7-2.8-1.4-1.3-0.8-2.6-1.8-1.2-0.9-2.4-2 0 0-0.1 0 0-0.1-0.1 0c-2.1 1.2-4.4 2.6-6.6 3.8q-0.4 0.2-0.8 0.3-0.5 0-0.9-0.1-0.4-0.1-0.8-0.4-0.1-0.1-0.2-0.1h-0.1l-5-8.6q-0.2-0.4-0.2-0.9-0.1-0.5 0-0.9 0.1-0.4 0.4-0.8l0.1-0.1-0.1-0.1c2.4-1.4 4.8-2.9 7.2-4.2q0.1 0 0.1-0.1 0.1 0 0-0.1-0.1-0.7-0.3-1.5-0.1-0.8-0.2-1.6-0.1-0.7-0.2-1.5 0-0.8 0-1.6 0-0.8 0-1.6 0.1-0.8 0.2-1.5 0.1-0.8 0.2-1.6 0.1-0.4 0.2-0.9l0.1-0.6q0.1 0 0-0.1 0-0.1 0-0.1c-2.2-1.2-4.5-2.5-6.6-3.8q-0.4-0.2-0.7-0.6-0.3-0.3-0.4-0.8-0.1-0.4 0-0.9 0-0.4 0.2-0.8c1.6-2.7 3.1-5.5 4.7-8.1q0.2-0.4 0.6-0.7 0.4-0.2 0.8-0.4 0.4-0.1 0.9 0 0.4 0 0.8 0.2 3.3 2 6.6 3.9 0.1 0 0.1 0 0.1 0 0.1-0.1 1.2-1.1 2.4-2 1.3-0.9 2.6-1.7 1.4-0.8 2.8-1.4 1.4-0.6 2.9-1.1zm0.4 1.4q-1.4 0.4-2.8 0.9-1.3 0.6-2.6 1.4-1.3 0.7-2.5 1.6-1.1 0.9-2.2 1.9-0.4 0.4-0.9 0.4-0.5 0.1-1-0.2c-2.1-1.2-4.4-2.5-6.6-3.8q-0.1 0-0.3-0.1-0.2 0-0.3 0.1-0.2 0-0.4 0.1-0.1 0.1-0.2 0.3c-1.6 2.4-3.2 5.5-4.7 8.1q-0.1 0.1-0.1 0.3 0 0.2 0 0.4 0.1 0.2 0.2 0.3 0.1 0.1 0.3 0.2c1.9 1.3 4.5 2.6 6.5 3.8q0.5 0.3 0.7 0.8 0.1 0.1 0.1 0.3h0.1l-0.1 0.6q-0.2 0.8-0.3 1.5-0.2 0.7-0.3 1.4-0.1 0.8-0.1 1.5 0 0.7 0 1.5 0 0.8 0 1.5 0 0.7 0.1 1.5 0.1 0.7 0.3 1.4 0.1 0.8 0.3 1.5 0.1 0.5-0.1 1-0.2 0.5-0.7 0.7l-5.8 3.4-0.7 0.4q-0.2 0.1-0.3 0.2-0.1 0.2-0.2 0.4 0 0.2 0 0.3 0 0.2 0.1 0.4l4.3 7.4 0.4 0.6q0.1 0.2 0.2 0.3 0.2 0.1 0.4 0.2 0.1 0 0.3 0 0.2 0 0.4-0.1c2-1.3 4.4-2.6 6.5-3.8q0.5-0.3 1-0.2 0.5 0.1 0.9 0.4 1.1 1 2.2 1.9 1.2 0.9 2.5 1.7 1.3 0.7 2.7 1.3 1.3 0.6 2.7 1 0.6 0.1 0.9 0.5 0.3 0.4 0.3 1v7.6q0 0.1 0 0.3 0.1 0.2 0.2 0.3 0.2 0.2 0.4 0.2 0.1 0.1 0.3 0.1h9.3q0.2 0 0.4-0.1 0.1-0.1 0.3-0.2 0.1-0.1 0.2-0.3 0-0.2 0-0.3v-7.6q0.1-0.6 0.4-1c0.2-0.3 0.5-0.5 0.8-0.5q1.4-0.4 2.8-1 1.3-0.6 2.6-1.3 1.3-0.8 2.5-1.7 1.2-0.9 2.2-1.9 0.4-0.4 1-0.4 0.5-0.1 1 0.2l6.5 3.8q0.1 0.1 0.3 0.1 0.2 0 0.4 0 0.2-0.1 0.3-0.2 0.1-0.1 0.2-0.3 2.4-4 4.7-8 0.1-0.2 0.1-0.4 0-0.2 0-0.3-0.1-0.2-0.2-0.4-0.1-0.1-0.2-0.2l-6.6-3.8q-0.5-0.3-0.7-0.7 0-0.2 0-0.3h-0.2l0.2-0.7q0.1-0.7 0.3-1.5 0.1-0.7 0.2-1.4 0.1-0.8 0.1-1.5 0.1-0.7 0.1-1.5 0-0.8-0.1-1.5 0-0.7-0.1-1.4-0.1-0.8-0.2-1.5-0.2-0.7-0.3-1.5-0.2-0.5 0.1-1 0.2-0.5 0.7-0.7l6.5-3.8q0.1-0.1 0.2-0.2 0.1-0.1 0.2-0.3 0-0.2 0-0.4 0-0.2-0.1-0.3c-1.6-2.4-3.2-5.6-4.7-8.1q-0.1-0.2-0.2-0.3-0.1-0.1-0.3-0.1-0.2-0.1-0.4-0.1-0.2 0.1-0.3 0.2l-6.6 3.7q-0.5 0.3-1 0.2-0.5 0-0.9-0.4-1.1-1-2.2-1.9-1.2-0.9-2.5-1.6-1.3-0.8-2.6-1.4-1.4-0.5-2.8-0.9-0.5-0.2-0.8-0.6-0.3-0.4-0.3-0.9v-7.6q0-0.2-0.1-0.4-0.1-0.2-0.2-0.3-0.2-0.1-0.3-0.2-0.2-0.1-0.4-0.1h-9.3q-0.2 0-0.3 0.1-0.2 0.1-0.4 0.2-0.2 0.3-0.2 0.7v7.6q0 0.5-0.4 0.9-0.3 0.4-0.8 0.6zm-3.7 12.8c1.3-1.3 3-2.4 4.8-3.2 1.7-0.7 3.7-1.1 5.7-1.1 2 0 3.9 0.4 5.6 1.1 1.9 0.8 3.5 1.9 4.8 3.2 1.4 1.4 2.5 3 3.3 4.8 0.7 1.8 1.1 3.7 1.1 5.7 0 2-0.4 3.9-1.1 5.7-0.8 1.8-1.9 3.4-3.3 4.8-1.3 1.4-2.9 2.5-4.8 3.2-1.7 0.7-3.6 1.1-5.6 1.1-2 0-4-0.4-5.7-1.1-1.8-0.7-3.5-1.8-4.8-3.2-1.4-1.4-2.5-3-3.2-4.8-0.8-1.8-1.2-3.7-1.2-5.7 0-2 0.4-3.9 1.2-5.7 0.7-1.8 1.8-3.4 3.2-4.8zm5.3-1.9c-1.6 0.7-3.1 1.7-4.3 2.9-1.3 1.2-2.3 2.7-3 4.4-0.6 1.6-1 3.3-1 5.1 0 1.8 0.4 3.6 1 5.2 0.7 1.6 1.7 3.1 3 4.3 1.2 1.3 2.7 2.3 4.3 3 1.6 0.6 3.3 1 5.2 1 1.8 0 3.5-0.4 5.1-1 1.7-0.7 3.1-1.7 4.4-3 1.2-1.2 2.2-2.7 2.9-4.3 0.7-1.6 1-3.4 1-5.2 0-1.8-0.3-3.5-1-5.1-0.7-1.7-1.7-3.2-2.9-4.4-1.3-1.2-2.8-2.2-4.4-2.9-1.6-0.7-3.3-1-5.1-1-1.9 0-3.6 0.3-5.2 1z"/>
			<path id="Layer" fill-rule="evenodd" class="s24" d="m504.9 180.8v-3.3q0.1-0.3 0.3-0.5 0.2-0.2 0.5-0.2h4.1q0.3 0 0.5 0.2 0.2 0.2 0.2 0.5v3.3c0 0.2 0.1 0.4 0.3 0.4q1.3 0.4 2.5 1.1 1.2 0.7 2.2 1.6c0.1 0.1 0.3 0.2 0.4 0.1l2.9-1.7q0.3-0.2 0.6-0.1 0.3 0.1 0.4 0.3l2.1 3.6q0.2 0.3 0.1 0.6-0.1 0.3-0.4 0.4l-2.9 1.7c-0.1 0.1-0.2 0.2-0.2 0.4q0.2 0.7 0.3 1.4 0.1 0.6 0.1 1.3 0 0.7-0.1 1.4-0.1 0.6-0.3 1.3c0 0.2 0.1 0.3 0.2 0.4l2.9 1.7q0.3 0.2 0.4 0.4 0.1 0.3-0.1 0.6l-2.1 3.6q-0.1 0.2-0.4 0.3-0.3 0.1-0.6-0.1l-2.9-1.6c-0.1-0.1-0.3-0.1-0.4 0q-1 1-2.2 1.6-1.2 0.7-2.5 1.1c-0.1 0-0.3 0.2-0.3 0.4v3.3q0 0.4-0.2 0.6-0.2 0.2-0.5 0.2h-4.1q-0.3 0-0.5-0.2-0.2-0.2-0.3-0.6v-3.3c0-0.2-0.1-0.3-0.2-0.4q-1.4-0.4-2.5-1.1-1.2-0.6-2.2-1.6c-0.1-0.1-0.3-0.1-0.4 0l-2.9 1.6h-0.1q-0.2 0.2-0.5 0.1-0.3-0.1-0.5-0.3l-2-3.6q-0.2-0.3-0.1-0.6 0.1-0.2 0.3-0.4l2.9-1.7c0.2 0 0.3-0.2 0.2-0.4q-0.1-0.7-0.2-1.3-0.1-0.7-0.1-1.4 0-0.7 0.1-1.3 0.1-0.7 0.2-1.4c0.1-0.1 0-0.3-0.1-0.4l-2.9-1.7h-0.1q-0.2-0.1-0.3-0.4-0.1-0.3 0.1-0.6l2-3.5v-0.1q0.2-0.2 0.5-0.3 0.3-0.1 0.5 0.1l3 1.7c0.1 0 0.3 0 0.4-0.1q1-0.9 2.2-1.6 1.1-0.7 2.5-1.1c0.1 0 0.2-0.2 0.2-0.4zm-3.5 11.1c0 1.7 0.8 3.3 1.9 4.5 1.1 1.1 2.7 1.8 4.4 1.8 1.8 0 3.4-0.7 4.5-1.8 1.1-1.2 1.8-2.8 1.8-4.5 0-1.7-0.7-3.3-1.8-4.4-1.1-1.2-2.7-1.9-4.5-1.9-1.7 0-3.3 0.7-4.4 1.9-1.1 1.1-1.9 2.7-1.9 4.4z"/>
			<path id="Layer" fill-rule="evenodd" class="s24" d="m634.7 270.2h0.1q0 0 0.1-0.1 0 0 0-0.1v-7.6c0-0.6 0.3-1.2 0.7-1.6q0.3-0.3 0.7-0.5 0.4-0.2 0.9-0.2h9.3q0.5 0 0.9 0.2 0.4 0.2 0.7 0.5 0.4 0.3 0.5 0.8 0.2 0.4 0.2 0.8v7.6q0 0.1 0.1 0.1 0 0.1 0.1 0.1 1.5 0.4 2.9 1 1.4 0.6 2.8 1.4 1.3 0.8 2.6 1.7 1.2 1 2.4 2.1 0 0 0.1 0 0 0 0.1 0l6.1-3.5 0.5-0.3q0.4-0.2 0.8-0.3 0.5 0 0.9 0.1 0.5 0.1 0.8 0.4 0.1 0.1 0.2 0.1h0.1c1.6 2.8 3.4 5.7 5 8.6q0.2 0.4 0.3 0.9 0 0.4-0.1 0.9-0.1 0.4-0.4 0.8-0.3 0.3-0.7 0.6l-6.5 3.8q-0.1 0-0.1 0.1 0 0 0 0.1 0.2 0.7 0.3 1.5 0.2 0.8 0.2 1.5 0.1 0.8 0.2 1.6 0 0.8 0 1.6 0 0.7 0 1.5-0.1 0.8-0.2 1.6 0 0.8-0.2 1.6-0.1 0.4-0.2 0.8h0.1l-0.2 0.7q0 0 0 0.1 0 0 0.1 0.1l6.5 3.8q0.4 0.2 0.7 0.6 0.3 0.3 0.4 0.8 0.1 0.4 0.1 0.9 0 0.1-0.1 0.2h0.1c-1.6 2.9-3.3 5.9-5 8.7q-0.2 0.4-0.6 0.7-0.3 0.2-0.8 0.4-0.4 0.1-0.9 0-0.4 0-0.8-0.3l-6.6-3.8q0 0-0.1 0-0.1 0-0.1 0.1-1.1 1-2.4 2-1.2 0.9-2.6 1.7-1.3 0.8-2.8 1.4-1.4 0.6-2.9 1v0.1q-0.1 0-0.1 0-0.1 0.1-0.1 0.1v7.6q0 0.5-0.2 0.9-0.1 0.4-0.5 0.7-0.3 0.4-0.7 0.5-0.4 0.2-0.9 0.2h-9.3q-0.5 0-0.9-0.2-0.4-0.1-0.7-0.5-0.3-0.3-0.5-0.7-0.2-0.4-0.2-0.9v-7.6q0 0 0-0.1-0.1 0-0.1 0-1.5-0.5-3-1.1-1.4-0.6-2.8-1.4-1.3-0.8-2.6-1.7-1.2-1-2.4-2 0-0.1-0.1-0.1 0 0-0.1 0c-2.1 1.3-4.4 2.7-6.6 3.8q-0.4 0.3-0.8 0.3-0.5 0.1-0.9 0-0.4-0.2-0.8-0.4-0.1-0.1-0.2-0.2l-0.1 0.1-5-8.7q-0.2-0.4-0.2-0.8-0.1-0.5 0-0.9 0.1-0.5 0.4-0.8l0.1-0.1-0.1-0.1c2.4-1.4 4.8-2.9 7.2-4.2q0.1 0 0.1-0.1 0.1-0.1 0-0.1-0.1-0.8-0.3-1.6-0.1-0.7-0.2-1.5-0.1-0.8-0.2-1.6 0-0.8 0-1.5 0-0.8 0-1.6 0.1-0.8 0.2-1.6 0.1-0.7 0.2-1.5 0.1-0.5 0.2-0.9l0.1-0.6q0-0.1 0-0.1 0-0.1-0.1-0.1c-2.1-1.3-4.4-2.5-6.5-3.8q-0.4-0.3-0.7-0.6-0.3-0.4-0.4-0.8-0.1-0.5 0-0.9 0-0.5 0.2-0.9c1.6-2.6 3.1-5.4 4.7-8q0.2-0.4 0.6-0.7 0.4-0.3 0.8-0.4 0.4-0.1 0.9-0.1 0.4 0.1 0.8 0.3 3.3 1.9 6.6 3.8 0.1 0.1 0.1 0 0.1 0 0.1 0 1.2-1.1 2.4-2 1.3-1 2.6-1.8 1.4-0.7 2.8-1.4 1.4-0.6 2.9-1zm0.4 1.3q-1.4 0.4-2.8 1-1.3 0.6-2.6 1.3-1.3 0.8-2.5 1.7-1.2 0.9-2.2 1.9-0.4 0.3-0.9 0.4-0.5 0.1-1-0.2c-2.1-1.2-4.4-2.5-6.6-3.8q-0.1-0.1-0.3-0.1-0.2 0-0.4 0-0.1 0.1-0.3 0.2-0.1 0.1-0.2 0.3c-1.6 2.4-3.2 5.5-4.7 8q-0.1 0.2-0.1 0.4 0 0.1 0 0.3 0.1 0.2 0.2 0.4 0.1 0.1 0.3 0.2c1.9 1.3 4.5 2.6 6.5 3.8q0.5 0.3 0.7 0.7 0 0.2 0.1 0.3l0.1 0.1-0.1 0.6q-0.2 0.7-0.3 1.4-0.2 0.7-0.3 1.5-0.1 0.8-0.1 1.5 0 0.7 0 1.5 0 0.8 0 1.5 0 0.7 0.1 1.4 0.1 0.8 0.3 1.5 0.1 0.7 0.3 1.4 0.1 0.6-0.1 1.1-0.3 0.4-0.7 0.7l-5.8 3.3v0.1l-0.7 0.3q-0.2 0.1-0.3 0.3-0.1 0.1-0.2 0.3 0 0.2 0 0.4 0 0.2 0.1 0.3l4.3 7.5 0.4 0.6q0.1 0.2 0.2 0.3 0.2 0.1 0.3 0.1 0.2 0.1 0.4 0.1 0.2-0.1 0.4-0.2c2-1.3 4.4-2.5 6.5-3.8q0.5-0.2 1-0.2 0.5 0.1 0.9 0.5 1.1 1 2.2 1.9 1.2 0.9 2.5 1.6 1.3 0.8 2.7 1.4 1.3 0.5 2.7 0.9 0.5 0.2 0.9 0.6 0.3 0.4 0.3 0.9v7.6q0 0.2 0 0.4 0.1 0.1 0.2 0.3 0.2 0.1 0.4 0.2 0.1 0.1 0.3 0.1h9.3q0.2 0 0.4-0.1 0.1-0.1 0.3-0.2 0.1-0.2 0.2-0.3 0-0.2 0-0.4v-7.6q0.1-0.5 0.4-0.9c0.2-0.3 0.5-0.5 0.8-0.6q1.4-0.4 2.8-1 1.3-0.5 2.6-1.3 1.3-0.7 2.5-1.6 1.2-0.9 2.2-1.9 0.4-0.4 1-0.5 0.5 0 1 0.3l6.5 3.7q0.1 0.1 0.3 0.2 0.2 0 0.4-0.1 0.2 0 0.3-0.1 0.1-0.1 0.2-0.3 2.4-4 4.7-8.1 0.1-0.1 0.1-0.3 0-0.2 0-0.4-0.1-0.2-0.2-0.3-0.1-0.2-0.2-0.3l-6.6-3.7q-0.5-0.3-0.7-0.8 0-0.1-0.1-0.2l-0.1-0.1 0.1-0.7q0.2-0.7 0.4-1.4 0.1-0.7 0.2-1.5 0.1-0.7 0.1-1.4 0.1-0.7 0.1-1.5 0-0.8-0.1-1.5 0-0.7-0.1-1.5-0.1-0.8-0.2-1.5-0.2-0.7-0.4-1.4-0.1-0.5 0.1-1 0.3-0.5 0.7-0.7l6.5-3.8q0.2-0.1 0.3-0.2 0.1-0.2 0.2-0.4 0-0.2 0-0.3 0-0.2-0.1-0.4c-1.6-2.4-3.2-5.5-4.7-8q-0.1-0.2-0.2-0.3-0.1-0.1-0.3-0.2-0.2 0-0.4 0-0.2 0-0.3 0.1l-6.6 3.8q-0.5 0.3-1 0.2-0.5-0.1-0.9-0.4-1.1-1.1-2.2-2-1.2-0.8-2.5-1.6-1.3-0.7-2.6-1.3-1.4-0.6-2.8-1-0.5-0.1-0.8-0.5-0.3-0.5-0.4-1v-7.6q0-0.2 0-0.3-0.1-0.2-0.2-0.3-0.2-0.2-0.3-0.2-0.2-0.1-0.4-0.1h-9.3q-0.2 0-0.3 0.1-0.2 0-0.4 0.2-0.2 0.2-0.2 0.6v7.6q0 0.6-0.4 1-0.3 0.4-0.8 0.5zm-3.7 12.9c1.3-1.4 3-2.5 4.8-3.2 1.7-0.8 3.7-1.2 5.7-1.2 2 0 3.9 0.4 5.6 1.2 1.8 0.7 3.5 1.8 4.8 3.2 1.4 1.4 2.5 3 3.3 4.8 0.7 1.8 1.1 3.7 1.1 5.7 0 2-0.4 3.9-1.1 5.6-0.8 1.9-1.9 3.5-3.3 4.9-1.3 1.3-3 2.4-4.8 3.2-1.7 0.7-3.6 1.1-5.6 1.1-2 0-4-0.4-5.7-1.1-1.8-0.8-3.5-1.9-4.8-3.2-1.4-1.4-2.5-3-3.2-4.9-0.8-1.7-1.2-3.6-1.2-5.6 0-2 0.4-3.9 1.2-5.7 0.7-1.8 1.8-3.4 3.2-4.8zm5.3-2c-1.6 0.7-3.1 1.7-4.4 3-1.2 1.2-2.2 2.7-2.9 4.3-0.6 1.6-1 3.3-1 5.2 0 1.8 0.4 3.5 1 5.1 0.7 1.7 1.7 3.1 2.9 4.4 1.3 1.2 2.8 2.2 4.4 2.9 1.6 0.7 3.3 1 5.2 1 1.8 0 3.5-0.3 5.1-1 1.6-0.7 3.1-1.7 4.4-2.9 1.2-1.3 2.2-2.7 2.9-4.4 0.6-1.6 1-3.3 1-5.1 0-1.9-0.4-3.6-1-5.2-0.7-1.6-1.7-3.1-2.9-4.3-1.3-1.3-2.8-2.3-4.4-3-1.6-0.6-3.3-1-5.1-1-1.9 0-3.6 0.4-5.2 1z"/>
			<path id="Layer" fill-rule="evenodd" class="s3" d="m103.2 155.9c0-0.6-0.5-1.1-1.1-1.1-0.6 0-1 0.5-1 1.1v2.6h-2.6c-0.6 0-1.1 0.4-1.1 1 0 0.6 0.5 1.1 1.1 1.1h2.6v2.6c0 0.6 0.4 1 1 1 0.6 0 1.1-0.4 1.1-1v-2.6h2.6c0.6 0 1-0.5 1-1.1 0-0.6-0.4-1-1-1h-2.6z"/>
			<path id="Layer" fill-rule="evenodd" class="s3" d="m290.1 93.6c0-0.6-0.5-1.1-1.1-1.1-0.6 0-1 0.5-1 1.1v2.5h-2.6c-0.6 0-1.1 0.5-1.1 1.1 0 0.6 0.5 1.1 1.1 1.1h2.6v2.5c0 0.6 0.4 1.1 1 1.1 0.6 0 1.1-0.5 1.1-1.1v-2.5h2.5c0.6 0 1.1-0.5 1.1-1.1 0-0.6-0.5-1.1-1.1-1.1h-2.5z"/>
			<path id="Layer" fill-rule="evenodd" class="s3" d="m389.1 86.3c0-0.6-0.5-1.1-1.1-1.1-0.6 0-1.1 0.5-1.1 1.1v2.5h-2.5c-0.6 0-1.1 0.5-1.1 1.1 0 0.6 0.5 1.1 1.1 1.1h2.5v2.5c0 0.6 0.5 1.1 1.1 1.1 0.6 0 1.1-0.5 1.1-1.1v-2.5h2.5c0.6 0 1.1-0.5 1.1-1.1 0-0.6-0.5-1.1-1.1-1.1h-2.5z"/>
			<path id="Layer" fill-rule="evenodd" class="s3" d="m572.4 308.7c0-0.6-0.5-1.1-1.1-1.1-0.6 0-1 0.5-1 1.1v2.5h-2.6c-0.6 0-1.1 0.5-1.1 1.1 0 0.6 0.5 1.1 1.1 1.1h2.6v2.5c0 0.6 0.4 1.1 1 1.1 0.6 0 1.1-0.5 1.1-1.1v-2.5h2.6c0.6 0 1-0.5 1-1.1 0-0.6-0.4-1.1-1-1.1h-2.6z"/>
			<path id="Layer" fill-rule="evenodd" class="s3" d="m154.5 405.2c0-0.6-0.5-1-1.1-1-0.6 0-1.1 0.4-1.1 1v2.6h-2.5c-0.6 0-1.1 0.5-1.1 1.1 0 0.6 0.5 1 1.1 1h2.5v2.6c0 0.6 0.5 1.1 1.1 1.1 0.6 0 1.1-0.5 1.1-1.1v-2.6h2.5c0.6 0 1.1-0.4 1.1-1 0-0.6-0.5-1.1-1.1-1.1h-2.5z"/>
			<path id="Layer" fill-rule="evenodd" class="s3" d="m104.3 225.6c0-0.6-0.4-1.1-1-1.1-0.6 0-1.1 0.5-1.1 1.1v2.5h-2.6c-0.5 0-1 0.5-1 1.1 0 0.6 0.5 1.1 1 1.1h2.6v2.5c0 0.6 0.5 1.1 1.1 1.1 0.6 0 1-0.5 1-1.1v-2.5h2.6c0.6 0 1.1-0.5 1.1-1.1 0-0.6-0.5-1.1-1.1-1.1h-2.6z"/>
			<g id="Layer">
				<path id="Layer" fill-rule="evenodd" class="s0" d="m492.6 448.9h-105.8c-2.1 0-3.8-1.8-3.8-3.9v-108.4c0-2.1 1.7-3.9 3.8-3.9h105.8c2.1 0 3.9 1.8 3.9 3.9v108.4c0 2.1-1.8 3.9-3.9 3.9z"/>
				<path id="Layer" fill-rule="evenodd" class="s21" d="m514.5 448.9h-38.3c-2.1 0-3.9-1.8-3.9-3.9v-108.4c0-2.1 1.8-3.9 3.9-3.9h38.3c2.1 0 3.8 1.8 3.8 3.9v108.4c0 2.1-1.7 3.9-3.8 3.9z"/>
				<path id="Layer" fill-rule="evenodd" class="s31" d="m509.1 342.2h-27.5c-1.2 0-2.1 0.9-2.1 2.1v1.9c0 1.1 0.9 2.1 2.1 2.1h27.5c1.1 0 2.1-1 2.1-2.1v-1.9c0-1.2-1-2.1-2.1-2.1z"/>
				<path id="Layer" fill-rule="evenodd" class="s32" d="m508.4 344.3c0-1.2-0.9-2.1-2.1-2.1h2.8c1.1 0 2.1 0.9 2.1 2.1v1.9c0 1.1-1 2.1-2.1 2.1h-2.8c0.2 0 2.1-1 2.1-2.1z"/>
				<path id="Layer" fill-rule="evenodd" class="s31" d="m509.1 351.6h-27.5c-1.2 0-2.1 0.9-2.1 2.1v1.9c0 1.2 0.9 2.1 2.1 2.1h27.5c1.1 0 2.1-0.9 2.1-2.1v-1.9c0-1.2-1-2.1-2.1-2.1z"/>
				<path id="Layer" fill-rule="evenodd" class="s32" d="m508.4 353.7c0-1.2-0.9-2.1-2.1-2.1h2.8c1.1 0 2.1 0.9 2.1 2.1v1.9c0 1.2-1 2.1-2.1 2.1h-2.8c0.2 0 2.1-0.9 2.1-2.1z"/>
				<path id="Layer" fill-rule="evenodd" class="s31" d="m509.1 361h-27.5c-1.2 0-2.1 1-2.1 2.1v1.9c0 1.2 0.9 2.1 2.1 2.1h27.5c1.1 0 2.1-0.9 2.1-2.1v-1.9c0-1.1-1-2.1-2.1-2.1z"/>
				<path id="Layer" fill-rule="evenodd" class="s32" d="m508.4 363.1c0-1.1-0.9-2.1-2.1-2.1h2.8c1.1 0 2.1 1 2.1 2.1v1.9c0 1.2-1 2.1-2.1 2.1h-2.8c0.2 0 2.1-0.9 2.1-2.1z"/>
				<path id="Layer" fill-rule="evenodd" class="s31" d="m509.1 370.4h-27.5c-1.2 0-2.1 1-2.1 2.2v1.9c0 1.1 0.9 2.1 2.1 2.1h27.5c1.1 0 2.1-1 2.1-2.1v-1.9c0-1.2-1-2.2-2.1-2.2z"/>
				<path id="Layer" fill-rule="evenodd" class="s32" d="m508.4 372.6c0-1.2-0.9-2.2-2.1-2.2h2.8c1.1 0 2.1 1 2.1 2.2v1.9c0 1.1-1 2.1-2.1 2.1h-2.8c0.2 0 2.1-1 2.1-2.1z"/>
				<path id="Layer" fill-rule="evenodd" class="s31" d="m503.3 398.7h-16c-4.7 0-8.6 3.9-8.6 8.6v16.2c0 4.7 3.9 8.6 8.6 8.6h16c4.8 0 8.6-3.9 8.6-8.6v-16.2c0-4.7-3.8-8.6-8.6-8.6z"/>
				<path id="Layer" fill-rule="evenodd" class="s32" d="m508.7 407.3c0-4.7-3.9-8.6-8.6-8.6h3.2c4.8 0 8.6 3.9 8.6 8.6v16.2c0 4.7-3.8 8.6-8.6 8.6h-3.2c4.7 0 8.6-3.9 8.6-8.6z"/>
				<path id="Layer" fill-rule="evenodd" class="s33" d="m496.3 408.4c3.1 0.4 5.6 2.9 6 6h9.7v2h-9.7c-0.4 3.1-2.9 5.6-6 6v9.7h-1.9v-9.7c-3.2-0.4-5.6-2.9-6.1-6h-9.7v-2h9.7c0.5-3.1 2.9-5.6 6.1-6v-9.7h1.9zm4.2 7c0-2.8-2.3-5.2-5.2-5.2-2.8 0-5.1 2.4-5.1 5.2 0 2.9 2.3 5.2 5.1 5.2 2.9 0 5.2-2.3 5.2-5.2z"/>
				<g id="Layer">
					<path id="Layer" fill-rule="evenodd" class="s31" d="m491.1 389.7h-10.3c-1.1 0-2.1 0.9-2.1 2.1v1.9c0 1.2 1 2.1 2.1 2.1h10.3c1.2 0 2.2-0.9 2.2-2.1v-1.9c0-1.2-1-2.1-2.2-2.1z"/>
					<path id="Layer" fill-rule="evenodd" class="s32" d="m490.5 391.8c0-1.2-0.9-2.1-2.1-2.1h2.7c1.2 0 2.2 0.9 2.2 2.1v1.9c0 1.2-1 2.1-2.2 2.1h-2.7c0.1 0 2.1-0.9 2.1-2.1z"/>
				</g>
				<g id="Layer">
					<path id="Layer" fill-rule="evenodd" class="s31" d="m491.1 380.5h-10.3c-1.1 0-2.1 1-2.1 2.1v2c0 1.1 1 2.1 2.1 2.1h10.3c1.2 0 2.2-1 2.2-2.1v-2c0-1.1-1-2.1-2.2-2.1z"/>
					<path id="Layer" fill-rule="evenodd" class="s32" d="m490.5 382.6c0-1.1-0.9-2.1-2.1-2.1h2.7c1.2 0 2.2 1 2.2 2.1v2c0 1.1-1 2.1-2.2 2.1h-2.7c0.1 0 2.1-1 2.1-2.1z"/>
				</g>
				<path id="Layer" fill-rule="evenodd" class="s21" d="m432.1 344.5h-25.6c-7.6 0-13.9 6.3-13.9 13.9v25.9c0 7.6 6.3 13.8 13.9 13.8h25.6c7.6 0 13.8-6.2 13.8-13.8v-25.9c0-7.6-6.2-13.9-13.8-13.9z"/>
				<path id="Layer" fill-rule="evenodd" class="s20" d="m431.3 346.3h-24c-7.1 0-12.9 5.8-12.9 12.9v24.3c0 7 5.8 12.8 12.9 12.8h24c7 0 12.8-5.8 12.8-12.8v-24.3c0-7.1-5.8-12.9-12.8-12.9z"/>
				<path id="Layer" fill-rule="evenodd" class="s34" d="m398.6 392.9c2.3 2.1 5.3 3.4 8.7 3.4h24c7 0 12.8-5.8 12.8-12.9v-19.1h-11v-13.6h-26.4v28.8h-8.1c0 0 0 13.4 0 13.4z"/>
				<path id="Layer" fill-rule="evenodd" class="s21" d="m457.7 407.8c-0.2 0.4-0.7 0.7-1.2 0.7-0.6 0-1.1-0.3-1.3-0.8h1.5q0.5 0 1 0.1zm-5 0.7c-0.6 0-1.1-0.3-1.3-0.8h2.6c-0.2 0.5-0.7 0.8-1.3 0.8zm-3.7 0c-0.6 0-1.1-0.3-1.3-0.8h2.6c-0.3 0.5-0.8 0.8-1.3 0.8zm-3.8 0c-0.6 0-1.1-0.3-1.3-0.8h2.6c-0.2 0.5-0.7 0.8-1.3 0.8zm-3.7 0c-0.6 0-1.1-0.3-1.3-0.7q0.5-0.1 1-0.1h1.6c-0.3 0.5-0.8 0.8-1.3 0.8zm-3.8 0q0 0-0.1 0 0.6-0.2 1.2-0.4c-0.3 0.3-0.7 0.4-1.1 0.4zm-2.3 2.4c0 0.8-0.6 1.4-1.4 1.4q-0.2 0-0.3 0 0.6-1.2 1.5-2.1 0.2 0.3 0.2 0.7zm-1.4 2.3c0.8 0 1.4 0.6 1.4 1.4 0 0.8-0.6 1.4-1.4 1.4-0.5 0-0.9-0.2-1.2-0.5q0.1-1.1 0.5-2.1 0.3-0.2 0.7-0.2zm0 3.7c0.8 0 1.4 0.7 1.4 1.5 0 0.8-0.6 1.4-1.4 1.4-0.5 0-0.9-0.2-1.2-0.6v-1.7c0.3-0.3 0.7-0.6 1.2-0.6zm0 3.8c0.8 0 1.4 0.6 1.4 1.4 0 0.8-0.6 1.4-1.4 1.4-0.5 0-0.9-0.2-1.2-0.5v-1.7c0.3-0.4 0.7-0.6 1.2-0.6zm0 3.7c0.8 0 1.4 0.7 1.4 1.5 0 0.7-0.6 1.4-1.4 1.4-0.5 0-0.9-0.2-1.2-0.6v-1.7c0.3-0.3 0.7-0.6 1.2-0.6zm0 3.8c0.8 0 1.4 0.6 1.4 1.4 0 0.8-0.6 1.4-1.4 1.4-0.5 0-0.9-0.2-1.2-0.5v-1.7c0.3-0.4 0.7-0.6 1.2-0.6zm0 3.7c0.8 0 1.4 0.7 1.4 1.5 0 0.7-0.6 1.4-1.4 1.4q-0.4 0-0.7-0.2-0.4-1-0.5-2.1c0.3-0.4 0.7-0.6 1.2-0.6zm0 3.8c0.8 0 1.4 0.6 1.4 1.4q0 0.4-0.2 0.6-0.9-0.9-1.5-2 0.1 0 0.3 0zm3.7 3.7c0.4 0 0.8 0.2 1.1 0.5q-0.6-0.2-1.2-0.5 0.1 0 0.1 0zm3.8 0c0.5 0 1 0.3 1.3 0.8h-1.6q-0.5 0-1 0c0.2-0.5 0.7-0.8 1.3-0.8zm3.7 0c0.6 0 1.1 0.3 1.3 0.8h-2.6c0.2-0.5 0.7-0.8 1.3-0.8zm3.8 0c0.5 0 1 0.3 1.3 0.8h-2.6c0.2-0.5 0.7-0.8 1.3-0.8zm3.7 0c0.6 0 1.1 0.3 1.3 0.8h-2.6c0.2-0.5 0.7-0.8 1.3-0.8zm3.8 0c0.5 0 1 0.3 1.2 0.8q-0.5 0-1 0h-1.5c0.2-0.5 0.7-0.8 1.3-0.8zm3.7 0q0.1 0 0.1 0-0.5 0.3-1.1 0.5c0.2-0.3 0.6-0.5 1-0.5zm2.3-2.3c0-0.8 0.7-1.4 1.5-1.4q0.1 0 0.2 0-0.6 1.1-1.5 2-0.2-0.2-0.2-0.6zm1.5-2.3c-0.8 0-1.5-0.7-1.5-1.4 0-0.8 0.7-1.5 1.5-1.5 0.4 0 0.8 0.2 1.1 0.6q-0.1 1.1-0.5 2.1-0.3 0.2-0.6 0.2zm0-3.8c-0.8 0-1.5-0.6-1.5-1.4 0-0.8 0.7-1.4 1.5-1.4 0.4 0 0.9 0.2 1.1 0.6v1.7c-0.2 0.3-0.7 0.5-1.1 0.5zm0-3.7c-0.8 0-1.5-0.7-1.5-1.4 0-0.8 0.7-1.5 1.5-1.5 0.4 0 0.9 0.3 1.1 0.6v1.7c-0.2 0.4-0.7 0.6-1.1 0.6zm0-3.8c-0.8 0-1.5-0.6-1.5-1.4 0-0.8 0.7-1.4 1.5-1.4 0.4 0 0.9 0.2 1.1 0.6v1.7c-0.2 0.3-0.7 0.5-1.1 0.5zm0-3.7c-0.8 0-1.5-0.6-1.5-1.4 0-0.8 0.7-1.5 1.5-1.5 0.4 0 0.9 0.3 1.1 0.6v1.7c-0.2 0.4-0.7 0.6-1.1 0.6zm0-3.8c-0.8 0-1.5-0.6-1.5-1.4 0-0.8 0.7-1.4 1.5-1.4q0.3 0 0.6 0.1 0.4 1.1 0.5 2.2c-0.3 0.3-0.7 0.5-1.1 0.5zm0-3.7c-0.8 0-1.5-0.6-1.5-1.4q0-0.4 0.2-0.7 0.9 0.9 1.5 2.1-0.1 0-0.2 0zm-3.8-3.8c-0.4 0-0.8-0.1-1-0.4q0.6 0.2 1.1 0.4 0 0-0.1 0zm-22.5 30c-0.8 0-1.4-0.6-1.4-1.4 0-0.8 0.6-1.4 1.4-1.4 0.8 0 1.4 0.6 1.4 1.4 0 0.8-0.6 1.4-1.4 1.4zm3.8 0c-0.8 0-1.5-0.6-1.5-1.4 0-0.8 0.7-1.4 1.5-1.4 0.8 0 1.4 0.6 1.4 1.4 0 0.8-0.6 1.4-1.4 1.4zm3.7 0c-0.8 0-1.4-0.6-1.4-1.4 0-0.8 0.6-1.4 1.4-1.4 0.8 0 1.4 0.6 1.4 1.4 0 0.8-0.6 1.4-1.4 1.4zm3.8 0c-0.8 0-1.5-0.6-1.5-1.4 0-0.8 0.7-1.4 1.5-1.4 0.8 0 1.4 0.6 1.4 1.4 0 0.8-0.6 1.4-1.4 1.4zm3.7 0c-0.8 0-1.4-0.6-1.4-1.4 0-0.8 0.6-1.4 1.4-1.4 0.8 0 1.4 0.6 1.4 1.4 0 0.8-0.6 1.4-1.4 1.4zm3.8 0c-0.8 0-1.5-0.6-1.5-1.4 0-0.8 0.7-1.4 1.5-1.4 0.8 0 1.4 0.6 1.4 1.4 0 0.8-0.6 1.4-1.4 1.4zm3.7 0c-0.8 0-1.4-0.6-1.4-1.4 0-0.8 0.6-1.4 1.4-1.4 0.8 0 1.4 0.6 1.4 1.4 0 0.8-0.6 1.4-1.4 1.4zm-21.1-5.1c0 0.7-0.6 1.4-1.4 1.4-0.8 0-1.4-0.7-1.4-1.4 0-0.8 0.6-1.5 1.4-1.5 0.8 0 1.4 0.7 1.4 1.5zm3.8 0c0 0.7-0.6 1.4-1.4 1.4-0.8 0-1.5-0.7-1.5-1.4 0-0.8 0.7-1.5 1.5-1.5 0.8 0 1.4 0.7 1.4 1.5zm3.7 0c0 0.7-0.6 1.4-1.4 1.4-0.8 0-1.4-0.7-1.4-1.4 0-0.8 0.6-1.5 1.4-1.5 0.8 0 1.4 0.7 1.4 1.5zm3.8 0c0 0.7-0.6 1.4-1.4 1.4-0.8 0-1.5-0.7-1.5-1.4 0-0.8 0.7-1.5 1.5-1.5 0.8 0 1.4 0.7 1.4 1.5zm3.7 0c0 0.7-0.6 1.4-1.4 1.4-0.8 0-1.4-0.7-1.4-1.4 0-0.8 0.6-1.5 1.4-1.5 0.8 0 1.4 0.7 1.4 1.5zm3.8 0c0 0.7-0.6 1.4-1.4 1.4-0.8 0-1.5-0.7-1.5-1.4 0-0.8 0.7-1.5 1.5-1.5 0.8 0 1.4 0.7 1.4 1.5zm3.7 0c0 0.7-0.6 1.4-1.4 1.4-0.8 0-1.4-0.7-1.4-1.4 0-0.8 0.6-1.5 1.4-1.5 0.8 0 1.4 0.7 1.4 1.5zm-23.9-2.4c-0.8 0-1.4-0.6-1.4-1.4 0-0.8 0.6-1.4 1.4-1.4 0.8 0 1.4 0.6 1.4 1.4 0 0.8-0.6 1.4-1.4 1.4zm3.8 0c-0.8 0-1.5-0.6-1.5-1.4 0-0.8 0.7-1.4 1.5-1.4 0.8 0 1.4 0.6 1.4 1.4 0 0.8-0.6 1.4-1.4 1.4zm3.7 0c-0.8 0-1.4-0.6-1.4-1.4 0-0.8 0.6-1.4 1.4-1.4 0.8 0 1.4 0.6 1.4 1.4 0 0.8-0.6 1.4-1.4 1.4zm3.8 0c-0.8 0-1.5-0.6-1.5-1.4 0-0.8 0.7-1.4 1.5-1.4 0.8 0 1.4 0.6 1.4 1.4 0 0.8-0.6 1.4-1.4 1.4zm3.7 0c-0.8 0-1.4-0.6-1.4-1.4 0-0.8 0.6-1.4 1.4-1.4 0.8 0 1.4 0.6 1.4 1.4 0 0.8-0.6 1.4-1.4 1.4zm3.8 0c-0.8 0-1.5-0.6-1.5-1.4 0-0.8 0.7-1.4 1.5-1.4 0.8 0 1.4 0.6 1.4 1.4 0 0.8-0.6 1.4-1.4 1.4zm3.7 0c-0.8 0-1.4-0.6-1.4-1.4 0-0.8 0.6-1.4 1.4-1.4 0.8 0 1.4 0.6 1.4 1.4 0 0.8-0.6 1.4-1.4 1.4zm-21.1-5.1c0 0.7-0.6 1.4-1.4 1.4-0.8 0-1.4-0.7-1.4-1.4 0-0.8 0.6-1.5 1.4-1.5 0.8 0 1.4 0.7 1.4 1.5zm3.8 0c0 0.7-0.6 1.4-1.4 1.4-0.8 0-1.5-0.7-1.5-1.4 0-0.8 0.7-1.5 1.5-1.5 0.8 0 1.4 0.7 1.4 1.5zm3.7 0c0 0.7-0.6 1.4-1.4 1.4-0.8 0-1.4-0.7-1.4-1.4 0-0.8 0.6-1.5 1.4-1.5 0.8 0 1.4 0.7 1.4 1.5zm3.8 0c0 0.7-0.6 1.4-1.4 1.4-0.8 0-1.5-0.7-1.5-1.4 0-0.8 0.7-1.5 1.5-1.5 0.8 0 1.4 0.7 1.4 1.5zm3.7 0c0 0.7-0.6 1.4-1.4 1.4-0.8 0-1.4-0.7-1.4-1.4 0-0.8 0.6-1.5 1.4-1.5 0.8 0 1.4 0.7 1.4 1.5zm3.8 0c0 0.7-0.6 1.4-1.4 1.4-0.8 0-1.5-0.7-1.5-1.4 0-0.8 0.7-1.5 1.5-1.5 0.8 0 1.4 0.7 1.4 1.5zm3.7 0c0 0.7-0.6 1.4-1.4 1.4-0.8 0-1.4-0.7-1.4-1.4 0-0.8 0.6-1.5 1.4-1.5 0.8 0 1.4 0.7 1.4 1.5zm-23.9-2.4c-0.8 0-1.4-0.6-1.4-1.4 0-0.8 0.6-1.4 1.4-1.4 0.8 0 1.4 0.6 1.4 1.4 0 0.8-0.6 1.4-1.4 1.4zm3.8 0c-0.8 0-1.5-0.6-1.5-1.4 0-0.8 0.7-1.4 1.5-1.4 0.8 0 1.4 0.6 1.4 1.4 0 0.8-0.6 1.4-1.4 1.4zm3.7 0c-0.8 0-1.4-0.6-1.4-1.4 0-0.8 0.6-1.4 1.4-1.4 0.8 0 1.4 0.6 1.4 1.4 0 0.8-0.6 1.4-1.4 1.4zm3.8 0c-0.8 0-1.5-0.6-1.5-1.4 0-0.8 0.7-1.4 1.5-1.4 0.8 0 1.4 0.6 1.4 1.4 0 0.8-0.6 1.4-1.4 1.4zm3.7 0c-0.8 0-1.4-0.6-1.4-1.4 0-0.8 0.6-1.4 1.4-1.4 0.8 0 1.4 0.6 1.4 1.4 0 0.8-0.6 1.4-1.4 1.4zm3.8 0c-0.8 0-1.5-0.6-1.5-1.4 0-0.8 0.7-1.4 1.5-1.4 0.8 0 1.4 0.6 1.4 1.4 0 0.8-0.6 1.4-1.4 1.4zm3.7 0c-0.8 0-1.4-0.6-1.4-1.4 0-0.8 0.6-1.4 1.4-1.4 0.8 0 1.4 0.6 1.4 1.4 0 0.8-0.6 1.4-1.4 1.4zm-21.1-5.1c0 0.8-0.6 1.4-1.4 1.4-0.8 0-1.4-0.6-1.4-1.4 0-0.8 0.6-1.5 1.4-1.5 0.8 0 1.4 0.7 1.4 1.5zm3.8 0c0 0.8-0.6 1.4-1.4 1.4-0.8 0-1.5-0.6-1.5-1.4 0-0.8 0.7-1.5 1.5-1.5 0.8 0 1.4 0.7 1.4 1.5zm3.7 0c0 0.8-0.6 1.4-1.4 1.4-0.8 0-1.4-0.6-1.4-1.4 0-0.8 0.6-1.5 1.4-1.5 0.8 0 1.4 0.7 1.4 1.5zm3.8 0c0 0.8-0.6 1.4-1.4 1.4-0.8 0-1.5-0.6-1.5-1.4 0-0.8 0.7-1.5 1.5-1.5 0.8 0 1.4 0.7 1.4 1.5zm3.7 0c0 0.8-0.6 1.4-1.4 1.4-0.8 0-1.4-0.6-1.4-1.4 0-0.8 0.6-1.5 1.4-1.5 0.8 0 1.4 0.7 1.4 1.5zm3.8 0c0 0.8-0.6 1.4-1.4 1.4-0.8 0-1.5-0.6-1.5-1.4 0-0.8 0.7-1.5 1.5-1.5 0.8 0 1.4 0.7 1.4 1.5zm3.7 0c0 0.8-0.6 1.4-1.4 1.4-0.8 0-1.4-0.6-1.4-1.4 0-0.8 0.6-1.5 1.4-1.5 0.8 0 1.4 0.7 1.4 1.5zm-23.9-2.4c-0.8 0-1.4-0.6-1.4-1.4 0-0.8 0.6-1.4 1.4-1.4 0.8 0 1.4 0.6 1.4 1.4 0 0.8-0.6 1.4-1.4 1.4zm3.8 0c-0.8 0-1.5-0.6-1.5-1.4 0-0.8 0.7-1.4 1.5-1.4 0.8 0 1.4 0.6 1.4 1.4 0 0.8-0.6 1.4-1.4 1.4zm3.7 0c-0.8 0-1.4-0.6-1.4-1.4 0-0.8 0.6-1.4 1.4-1.4 0.8 0 1.4 0.6 1.4 1.4 0 0.8-0.6 1.4-1.4 1.4zm3.8 0c-0.8 0-1.5-0.6-1.5-1.4 0-0.8 0.7-1.4 1.5-1.4 0.8 0 1.4 0.6 1.4 1.4 0 0.8-0.6 1.4-1.4 1.4zm3.7 0c-0.8 0-1.4-0.6-1.4-1.4 0-0.8 0.6-1.4 1.4-1.4 0.8 0 1.4 0.6 1.4 1.4 0 0.8-0.6 1.4-1.4 1.4zm3.8 0c-0.8 0-1.5-0.6-1.5-1.4 0-0.8 0.7-1.4 1.5-1.4 0.8 0 1.4 0.6 1.4 1.4 0 0.8-0.6 1.4-1.4 1.4zm3.7 0c-0.8 0-1.4-0.6-1.4-1.4 0-0.8 0.6-1.4 1.4-1.4 0.8 0 1.4 0.6 1.4 1.4 0 0.8-0.6 1.4-1.4 1.4zm-21.1-5.1c0 0.8-0.6 1.4-1.4 1.4-0.8 0-1.4-0.6-1.4-1.4 0-0.8 0.6-1.5 1.4-1.5 0.8 0 1.4 0.7 1.4 1.5zm3.8 0c0 0.8-0.6 1.4-1.4 1.4-0.8 0-1.5-0.6-1.5-1.4 0-0.8 0.7-1.5 1.5-1.5 0.8 0 1.4 0.7 1.4 1.5zm3.7 0c0 0.8-0.6 1.4-1.4 1.4-0.8 0-1.4-0.6-1.4-1.4 0-0.8 0.6-1.5 1.4-1.5 0.8 0 1.4 0.7 1.4 1.5zm3.8 0c0 0.8-0.6 1.4-1.4 1.4-0.8 0-1.5-0.6-1.5-1.4 0-0.8 0.7-1.5 1.5-1.5 0.8 0 1.4 0.7 1.4 1.5zm3.7 0c0 0.8-0.6 1.4-1.4 1.4-0.8 0-1.4-0.6-1.4-1.4 0-0.8 0.6-1.5 1.4-1.5 0.8 0 1.4 0.7 1.4 1.5zm3.8 0c0 0.8-0.6 1.4-1.4 1.4-0.8 0-1.5-0.6-1.5-1.4 0-0.8 0.7-1.5 1.5-1.5 0.8 0 1.4 0.7 1.4 1.5zm3.7 0c0 0.8-0.6 1.4-1.4 1.4-0.8 0-1.4-0.6-1.4-1.4 0-0.8 0.6-1.5 1.4-1.5 0.8 0 1.4 0.7 1.4 1.5z"/>
				<g id="Layer">
					<path id="Layer" fill-rule="evenodd" class="s21" d="m424.3 438.2h-34.5c-0.6 0-1 0.4-1 1 0 0.6 0.4 1 1 1h34.5c0.6 0 1.1-0.4 1.1-1 0-0.6-0.5-1-1.1-1z"/>
					<path id="Layer" fill-rule="evenodd" class="s21" d="m424.3 433.8h-34.5c-0.6 0-1 0.5-1 1 0 0.6 0.4 1.1 1 1.1h34.5c0.6 0 1.1-0.5 1.1-1.1 0-0.5-0.5-1-1.1-1z"/>
					<path id="Layer" fill-rule="evenodd" class="s21" d="m424.3 429.5h-34.5c-0.6 0-1 0.4-1 1 0 0.6 0.4 1 1 1h34.5c0.6 0 1.1-0.4 1.1-1 0-0.6-0.5-1-1.1-1z"/>
					<path id="Layer" fill-rule="evenodd" class="s21" d="m424.3 425.1h-28.6c-0.6 0-1.1 0.5-1.1 1.1 0 0.5 0.5 1 1.1 1h28.6c0.6 0 1.1-0.5 1.1-1 0-0.6-0.5-1.1-1.1-1.1z"/>
					<path id="Layer" fill-rule="evenodd" class="s21" d="m424.3 420.8h-34.5c-0.6 0-1 0.4-1 1 0 0.6 0.4 1 1 1h34.5c0.6 0 1.1-0.4 1.1-1 0-0.6-0.5-1-1.1-1z"/>
					<path id="Layer" fill-rule="evenodd" class="s21" d="m424.3 416.4h-34.5c-0.6 0-1 0.5-1 1.1 0 0.5 0.4 1 1 1h34.5c0.6 0 1.1-0.5 1.1-1 0-0.6-0.5-1.1-1.1-1.1z"/>
					<path id="Layer" fill-rule="evenodd" class="s21" d="m417.9 412.1h-28.1c-0.6 0-1 0.4-1 1 0 0.6 0.4 1 1 1h28.1c0.6 0 1-0.4 1-1 0-0.6-0.4-1-1-1z"/>
					<path id="Layer" fill-rule="evenodd" class="s21" d="m424.3 407.7h-34.5c-0.6 0-1 0.5-1 1.1 0 0.5 0.4 1 1 1h34.5c0.6 0 1.1-0.5 1.1-1 0-0.6-0.5-1.1-1.1-1.1z"/>
					<path id="Layer" fill-rule="evenodd" class="s21" d="m391.3 425.1h-1.5c-0.6 0-1 0.5-1 1.1 0 0.5 0.4 1 1 1h1.5c0.6 0 1.1-0.5 1.1-1 0-0.6-0.5-1.1-1.1-1.1z"/>
					<path id="Layer" fill-rule="evenodd" class="s21" d="m424.3 412.1h-2.4c-0.6 0-1.1 0.4-1.1 1 0 0.6 0.5 1 1.1 1h2.4c0.6 0 1.1-0.4 1.1-1 0-0.6-0.5-1-1.1-1z"/>
				</g>
				<path id="Layer" fill-rule="evenodd" class="s35" d="m444.1 378.6v4.9c0 3.7-1.6 7.1-4.2 9.4l-42.2-42.2c2.4-2.7 5.8-4.4 9.6-4.4h4.6zm-48.8-24.2l40.9 40.9c-1.6 0.7-3.3 1-5 1h-1.4l-35.5-35.4v-1.7c0-1.7 0.4-3.3 1-4.8z"/>
			</g>
		</g>
	</g>
	<g id="DESIGNED_BY_FREEPIK">
		<path id="Layer" fill-rule="evenodd" class="s36" d="m385.6 475.8c-0.9 1-1.5 2.2-1.7 3.5l-0.8-0.1q0.2-0.9 0.5-1.8l-0.4-0.2q-0.1 0-0.2 0.1c-0.3 0-0.6-0.2-0.7-0.6 0-0.3 0.2-0.6 0.6-0.6 0.3-0.1 0.6 0.1 0.6 0.4l0.5 0.3q0.5-0.8 1.1-1.5zm1.6-2.1q1-0.4 2.1-0.6l-0.1-0.6c-0.2-0.1-0.4-0.3-0.4-0.6 0-0.4 0.2-0.8 0.6-0.8 0.4 0 0.8 0.2 0.8 0.6 0.1 0.3 0 0.5-0.2 0.7v0.6q0.3 0 0.5 0 0.9 0 1.7 0.2l-0.2 0.7q-0.7-0.2-1.5-0.2-1.5 0-2.9 0.7zm10.4 1.1c0 0.4-0.2 0.7-0.5 0.7q-0.1 0-0.2 0l-0.4 0.4q0.6 0.7 0.9 1.5l-0.7 0.3c-0.5-1.2-1.4-2.2-2.5-2.9l0.4-0.7q0.8 0.5 1.4 1.2l0.4-0.4c0-0.3 0.2-0.5 0.5-0.6 0.4 0 0.7 0.2 0.7 0.5zm-3.7 7.7q1.4-0.5 2.5-1.1c-0.7 2.5-3.1 4.5-6 4.5-2.3 0-4.3-1.3-5.4-3.2 0.4 0.2 0.9 0.3 1.3 0.3 0.7 0.2 1.6 0.2 2.5 0.2q0.5 0 1.1 0c1.4-0.1 2.8-0.3 4-0.7zm2.6-2.8q0 0.3 0.1 0.6c-1.4 1.2-3.8 1.9-6.7 2.1-2.7 0.2-4.7-0.2-5.4-0.7q-0.1-0.6-0.1-1.3c0-3.2 2.7-5.9 6.1-5.9 3 0 5.6 2.2 6 5.2zm-6.3-0.5c0-1.1-0.9-1.9-1.9-1.9-1 0-1.8 0.8-1.8 1.9 0 1 0.8 1.8 1.8 1.8 1 0 1.9-0.8 1.9-1.8zm4.2-0.5c0-0.7-0.6-1.3-1.3-1.3-0.8 0-1.4 0.6-1.4 1.3 0 0.8 0.6 1.4 1.4 1.4 0.7 0 1.3-0.6 1.3-1.4zm9.9-0.7h2.2v1.7h-2.2v5.5h-2v-5.5h-1.3v-1.7h1.3v-0.9c0-1.7 0.9-2.8 2.6-2.8 0.6 0 1.1 0.1 1.6 0.3v1.8c-0.3-0.2-0.8-0.4-1.4-0.3-0.6 0.1-0.8 0.4-0.8 1 0 0 0 0.9 0 0.9zm7.9 0.1l-1 1.6q-0.3-0.1-0.5-0.1c-0.9 0-1.6 0.6-1.6 1.7v3.9h-1.9v-7.2h1.9v0.8c0.4-0.7 1.1-1 2-1 0.4 0 0.9 0.1 1.1 0.3zm6.6 3.5c0 0.2 0 0.5 0 0.6h-5.1c0.2 1 1 1.5 1.9 1.5 0.6 0 1.3-0.3 1.8-0.7l1.1 1.3c-0.8 0.7-1.8 1-3 1-2.2 0-3.8-1.5-3.8-3.7 0-2.3 1.5-3.8 3.7-3.8 2 0 3.4 1.5 3.4 3.8zm-1.9-0.7c-0.2-0.9-0.7-1.4-1.6-1.4-0.9 0-1.4 0.5-1.6 1.4zm9.6 0.7c0 0.2 0 0.5 0 0.6h-5.1c0.2 1 0.9 1.5 1.8 1.5 0.7 0 1.3-0.3 1.9-0.7l1.1 1.3c-0.8 0.7-1.9 1-3.1 1-2.2 0-3.7-1.5-3.7-3.7 0-2.3 1.5-3.8 3.6-3.8 2.1 0 3.5 1.5 3.5 3.8zm-1.9-0.7c-0.2-0.9-0.7-1.4-1.6-1.4-0.9 0-1.4 0.5-1.6 1.4zm10.3 0.7c0 2.1-1.5 3.7-3.5 3.7-0.9 0-1.6-0.3-2.1-0.9v3.7h-1.9v-10.1h1.9v0.8c0.4-0.6 1.1-1 2.1-1 2 0 3.5 1.6 3.5 3.8zm-2 0c0-1.1-0.7-2-1.8-2-1.1 0-1.9 0.8-1.9 2 0 1.1 0.8 1.9 1.9 1.9 1.1 0 1.8-0.8 1.8-1.9zm5.1-6c0 0.7-0.5 1.3-1.2 1.3-0.7 0-1.3-0.6-1.3-1.3 0-0.7 0.6-1.2 1.3-1.2 0.7 0 1.2 0.5 1.2 1.2zm-2.2 2.4h1.9v7.2h-1.9zm10.3 7.1h-2.4l-2.7-2.9v2.9h-2v-10.6h2v6l2.7-2.5h2.3l-3.4 3.3zm-136.8-9.8h1.1v9.8h-1.1v-1.1c-0.5 0.7-1.4 1.2-2.3 1.2-1.9 0-3.2-1.4-3.2-3.7 0-2.2 1.3-3.7 3.2-3.7 0.9 0 1.8 0.5 2.3 1.3zm0 4.6c-0.4-0.6-1.2-1.1-2.1-1.1-1.4 0-2.3 1.1-2.3 2.7 0 1.6 0.9 2.7 2.3 2.7 0.9 0 1.7-0.5 2.1-1.1zm9.4 1.7v0.3h-5.7c0.1 1.3 1 2.4 2.6 2.4 0.8 0 1.6-0.3 2.1-0.9l0.6 0.7c-0.7 0.7-1.7 1.1-2.8 1.1-2.1 0-3.6-1.5-3.6-3.7 0-2.1 1.4-3.7 3.4-3.7 2.2 0 3.4 1.7 3.4 3.8zm-1-0.5c-0.1-1.1-0.8-2.4-2.4-2.4-1.5 0-2.2 1.3-2.3 2.4zm7.5 2c0 1.2-0.9 2.1-2.8 2.1-1.1 0-2.1-0.3-2.8-1.1l0.6-0.8c0.4 0.6 1.3 1 2.3 1 1.1 0 1.7-0.5 1.7-1.2 0-1.7-4.4-0.6-4.4-3.3 0-1.1 0.9-2 2.6-2 1.2 0 2.1 0.4 2.6 1l-0.5 0.8c-0.4-0.5-1.2-0.9-2.1-0.9-0.9 0-1.5 0.5-1.5 1.1 0 1.6 4.3 0.5 4.3 3.3zm2.7-6.9c0 0.4-0.3 0.8-0.7 0.8-0.4 0-0.7-0.4-0.7-0.8 0-0.4 0.3-0.7 0.7-0.7 0.4 0 0.7 0.3 0.7 0.7zm-1.2 1.8h1.1v7h-1.1zm8 0h1.1v6.9c0 2.4-1.6 3.1-3.4 3.1-1.2 0-2-0.2-2.8-1.1l0.5-0.8c0.6 0.7 1.3 1 2.3 1 1.2 0 2.3-0.6 2.3-2.1v-1.1c-0.5 0.8-1.4 1.3-2.4 1.3-1.8 0-3.1-1.4-3.1-3.7 0-2.2 1.3-3.6 3.1-3.6 1 0 1.8 0.4 2.4 1.2 0 0 0-1.1 0-1.1zm0 2c-0.4-0.6-1.2-1.2-2.1-1.2-1.4 0-2.3 1.2-2.3 2.7 0 1.6 0.9 2.7 2.3 2.7 0.9 0 1.7-0.5 2.1-1.1zm8.8 0.1v5h-1.1v-4.6c0-1.3-0.6-1.7-1.6-1.7-0.8 0-1.7 0.6-2.1 1.1v5.2h-1.1v-7.1h1.1v1.1c0.5-0.6 1.5-1.2 2.5-1.2 1.5 0 2.3 0.7 2.3 2.2zm8.3 1.6v0.2h-5.7c0.1 1.4 1 2.5 2.5 2.5 0.8 0 1.6-0.3 2.2-0.9l0.5 0.7c-0.7 0.7-1.6 1.1-2.8 1.1-2.1 0-3.6-1.5-3.6-3.7 0-2.1 1.5-3.7 3.5-3.7 2.1 0 3.4 1.6 3.4 3.8zm-1.1-0.6c0-1-0.7-2.3-2.3-2.3-1.5 0-2.3 1.2-2.3 2.3zm7.6-5.8h1.1v9.8h-1.1v-1c-0.5 0.7-1.4 1.2-2.4 1.2-1.8 0-3.1-1.4-3.1-3.7 0-2.3 1.2-3.7 3.1-3.7 1 0 1.8 0.4 2.4 1.2zm0 4.6c-0.4-0.6-1.3-1.1-2.1-1.1-1.5 0-2.3 1.2-2.3 2.7 0 1.6 0.8 2.8 2.3 2.8 0.8 0 1.7-0.5 2.1-1.1zm13 1.5c0 2.3-1.3 3.8-3.2 3.8-1 0-1.8-0.6-2.4-1.3v1.1h-1.1v-9.8h1.1v3.8c0.6-0.8 1.5-1.3 2.4-1.3 1.9 0 3.2 1.5 3.2 3.7zm-1.2 0c0-1.5-0.8-2.7-2.3-2.7-0.8 0-1.7 0.5-2.1 1.2v3.2c0.4 0.6 1.3 1.1 2.1 1.1 1.5 0 2.3-1.2 2.3-2.8zm7.4-3.5h1.2l-3.5 8.5c-0.4 1-1.2 1.4-2.1 1.4-0.2 0-0.6 0-0.8-0.1l0.2-0.9c0.1 0 0.4 0.1 0.6 0.1 0.5 0 0.8-0.2 1-0.8l0.5-1-3-7.2h1.2l2.4 5.8z"/>
	</g>
</svg>